<?xml version="1.0" encoding="UTF-8" standalone="no"?>
<svg
   xmlns:dc="http://purl.org/dc/elements/1.1/"
   xmlns:cc="http://creativecommons.org/ns#"
   xmlns:rdf="http://www.w3.org/1999/02/22-rdf-syntax-ns#"
   xmlns:svg="http://www.w3.org/2000/svg"
   xmlns="http://www.w3.org/2000/svg"
   xmlns:sodipodi="http://sodipodi.sourceforge.net/DTD/sodipodi-0.dtd"
   xmlns:inkscape="http://www.inkscape.org/namespaces/inkscape"
   version="1.1"
   id="svg2"
   xml:space="preserve"
   width="4000"
   height="2666.6667"
   viewBox="0 0 4000 2666.6667"
   sodipodi:docname="10966.eps"><metadata
     id="metadata8"><rdf:RDF><cc:Work
         rdf:about=""><dc:format>image/svg+xml</dc:format><dc:type
           rdf:resource="http://purl.org/dc/dcmitype/StillImage" /></cc:Work></rdf:RDF></metadata><defs
     id="defs6" /><sodipodi:namedview
     pagecolor="#ffffff"
     bordercolor="#666666"
     borderopacity="1"
     objecttolerance="10"
     gridtolerance="10"
     guidetolerance="10"
     inkscape:pageopacity="0"
     inkscape:pageshadow="2"
     inkscape:window-width="640"
     inkscape:window-height="480"
     id="namedview4" /><g
     id="g10"
     inkscape:groupmode="layer"
     inkscape:label="ink_ext_XXXXXX"
     transform="matrix(1.3333333,0,0,-1.3333333,0,2666.6667)"><g
       id="g12"
       transform="scale(0.1)"><path
         d="M 0,0 H 30000 V 20000 H 0 Z"
         style="fill:#ffffff;fill-opacity:1;fill-rule:nonzero;stroke:none"
         id="path14" /><path
         d="m 4512.07,1674.5 c 0,0 -3050.32,3128.5 -1107.78,6807.4 1942.56,3678.9 4549.22,1827.5 4424.52,6110.3 -124.7,4282.7 5997.89,4648.5 7946.29,3406.1 1948.4,-1242.5 1936.1,-2738.1 5959.4,-2244.6 4023.3,493.4 4790.5,-3631.9 3743.1,-5733.9 -1486.1,-2982.3 4120.7,-2492.3 585.9,-8352.8 l -21551.43,7.5"
         style="fill:#ebf3fa;fill-opacity:1;fill-rule:nonzero;stroke:none"
         id="path16" /><path
         d="m 23404.4,12038.4 c 0,-304.4 -27.4,-602.6 -80.1,-892.2 -126.5,-694.8 -397.8,-1339 -781.8,-1900.4 C 21650.5,7941.2 20150.7,7085 18451,7085 c -2021.9,0 -3761,1211.3 -4530.6,2948.1 -101.6,228.8 -186.3,466.7 -252.3,712.3 -111.5,412.2 -170.8,845.8 -170.8,1293 0,361.8 38.8,714.6 112.5,1054.1 0.7,4 1.7,7.7 2.4,11.6 205.9,939 678,1777.8 1333.3,2434.1 185.8,186.3 386.5,357.8 600.2,512.7 101.8,73.9 206.8,144.1 314.3,210 753.6,463.8 1640.9,731.2 2591,731.2 126,0 250.8,-4.7 374.3,-14.1 174.5,-12.8 346.2,-34.8 515,-65.5 710.6,-128.7 1368.1,-409.2 1938.4,-806.5 h 0.2 c 355.3,-247.3 676.5,-539.9 955.5,-869.7 146.5,-173.2 281.4,-356.6 403.3,-549.1 75.8,-119.8 146.7,-242.8 212.5,-369.4 157.8,-303.9 284.8,-626.3 377.5,-963.1 115.2,-419.1 176.7,-860.6 176.7,-1316.3"
         style="fill:#dce8ff;fill-opacity:1;fill-rule:nonzero;stroke:none"
         id="path18" /><path
         d="m 17764,14475.6 c -34,4.7 -68.6,7.1 -103.9,7.2 l -3517.9,1.2 c 220.1,386.9 490.9,741.3 803.3,1054.2 185.8,186.3 386.5,357.8 600.2,512.7 101.8,73.9 206.8,144.1 314.3,210 154.4,-5.6 339,-64.2 496.4,-258.9 345.9,-428.5 576.5,-214.2 494.2,-708.4 -75.5,-452.1 28.5,-545.8 261.1,-545.8 21.7,0 44.4,0.8 68.3,2.2 60.9,3.6 124.1,6.4 186.2,6.4 223.1,0 430.5,-36.5 456.2,-204.1 5.7,-37.3 -16.6,-61.2 -58.4,-76.7"
         style="fill:#b1caff;fill-opacity:1;fill-rule:nonzero;stroke:none"
         id="path20" /><path
         d="m 18414.7,9218.3 0.2,463.3 c 64.4,-102.5 126.1,-207.3 115.8,-293.4 -9.2,-76.5 -56.4,-124.5 -116,-169.9 m 337.1,770.5 c -63.9,0 -127.6,19.9 -187.4,39.8 -53.7,17.9 -104.4,35.8 -149.4,39.3 l 0.5,1226.7 c 58.7,-27.1 124.8,-35.9 186.3,-35.9 117,0 217.1,32.1 217.1,32.1 52.1,57.3 143.8,84.1 237.1,84.1 202,0 412.2,-125.4 248.9,-339.5 -238.9,-312.9 -82.4,-576.5 -313,-906 -75.5,-107.8 -158,-140.6 -240.1,-140.6"
         style="fill:#b1caff;fill-opacity:1;fill-rule:nonzero;stroke:none"
         id="path22" /><path
         d="m 22356.8,9215.2 c -70.3,0 -140.6,13.3 -210.3,41.3 -617.8,247.1 -160.7,914.2 86.4,1247.8 247.1,333.5 -383,185.3 -840.1,494.1 -422.9,285.8 -21,1015.7 -330.2,1015.7 -25,0 -54.7,-4.8 -89.8,-14.9 -239.6,-69.4 -504.9,-148.4 -743.4,-148.4 -228.9,0 -433.1,72.7 -566.2,296.6 -271.8,457.1 247.1,531.2 12.4,914.2 -234.8,383 135.9,605.4 605.3,642.5 469.5,37 407.7,370.6 988.4,420 18.7,1.6 36.9,2.4 54.4,2.4 254.3,0 387.7,-161.8 527.8,-323.6 140.1,-161.8 287,-323.6 568.3,-323.6 19.4,0 39.5,0.8 60.2,2.4 91.8,7 169.9,10.1 236.3,10.1 398.5,0 377.2,-108.9 377.2,-108.9 2.7,0 5.3,0 7.9,0 43.4,0 85.8,-9.6 126.3,-28.2 115.2,-419.1 176.7,-860.6 176.7,-1316.3 0,-304.4 -27.4,-602.6 -80.1,-892.2 -126.5,-694.8 -397.8,-1339 -781.8,-1900.4 v 0 c -61.5,-20.2 -123.6,-30.6 -185.7,-30.6"
         style="fill:#b1caff;fill-opacity:1;fill-rule:nonzero;stroke:none"
         id="path24" /><path
         d="m 22617.2,14259.6 c -157.9,0 -287,83.3 -412.2,166.6 -125.1,83.3 -246.3,166.6 -388.3,166.6 -53.8,0 -110.7,-12 -171.8,-40.5 -89.6,-41.6 -158.6,-59.6 -214.5,-59.6 -231.3,0 -235.8,308.6 -527.6,520.9 -87.8,63.9 -196.9,84.2 -311.4,84.2 -100.1,0 -204.4,-15.6 -302.1,-31.1 -97.6,-15.6 -188.7,-31.2 -262.5,-31.2 -116,0 -189.2,38.5 -178.3,175.8 32.9,411.7 576.5,296.5 691.9,625.9 76.9,219.6 336.9,256.2 501.6,256.2 82.3,0 140.8,-9.1 140.8,-9.1 29.9,11.3 62,18.8 95.9,21.7 h 0.2 c 355.3,-247.3 676.5,-539.9 955.5,-869.7 146.5,-173.2 281.4,-356.6 403.3,-549.1 75.8,-119.8 146.7,-242.8 212.5,-369.4 -85,-41.3 -162,-58.2 -233,-58.2"
         style="fill:#b1caff;fill-opacity:1;fill-rule:nonzero;stroke:none"
         id="path26" /><path
         d="m 17745.6,15098.7 c -182.3,0 -358.2,405.8 -565.7,639.7 -243.3,274.2 -138.9,526.6 160.3,526.6 19.8,0 40.6,-1.1 62.1,-3.4 38.1,-4 71.9,-5.8 102.5,-5.8 83.8,0 143.5,12.9 201.2,25.8 57.6,12.8 113.3,25.7 189.3,25.7 72,0 162.2,-11.6 289.4,-45.7 444.8,-119.2 164.8,-523.2 164.8,-523.2 -275.9,-28.8 -230.6,-255.3 -465.4,-554.4 -47,-59.9 -92.9,-85.3 -138.5,-85.3"
         style="fill:#b1caff;fill-opacity:1;fill-rule:nonzero;stroke:none"
         id="path28" /><path
         d="m 26636.9,4001.8 c 197,628 -813.4,1037.7 -813.4,1037.7 0,0 -1211.8,-545.1 -1404.5,-453.4 -192.8,91.7 945.1,668.3 945.1,668.3 -324.4,254.3 -1476.3,393.3 -1476.3,393.3 0,0 -642.4,-1128.7 -806.6,-992.4 -164.2,136.3 619.8,970.4 619.8,970.4 -398.7,113.3 -960.4,-77.6 -960.4,-77.6 -796.4,-386.4 -490.2,-1775.5 -1002.2,-2060.9 v 0 c 0,0 -104.2,-46.5 -245.1,-148.7 l 91.2,-58.3 c 23.1,19.7 46.4,38.1 70,55 l 0.4,0.3 1.1,0.7 c 15.2,10.1 37,24.4 63.8,41.7 l 0.1,0.1 0.1,0.1 c 62.8,36.7 107.3,65 137.8,86.5 l 0.3,0.2 c 192.9,117.9 568.4,278.7 565.8,259.8 -57.5,-434.3 687.6,-988.8 1179.6,-1177.4 492,-188.6 380.7,55.2 273.7,403.9 -107,348.8 -631.3,609.7 -726.5,780.4 -95.1,170.7 166.7,113.4 442.4,-94.1 275.8,-207.6 235.6,-590.2 675.5,-934 440,-343.8 1359.7,309.4 1359.7,309.4 -387.6,106.2 -853.6,655.1 -804.6,780.9 48.9,125.8 900.6,-434 1055.8,-486 155.2,-52 560.4,66.1 757.4,694.1"
         style="fill:#dfebfd;fill-opacity:1;fill-rule:nonzero;stroke:none"
         id="path30" /><path
         d="m 3587,6201.8 c 94.03,839 1491.98,796.8 1491.98,796.8 0,0 1140.09,-1267.3 1413.73,-1259.5 273.66,7.8 -763.17,1273.8 -763.17,1273.8 512.42,130.5 1936.29,-302.8 1936.29,-302.8 0,0 169.5,-1657.4 432.79,-1582.5 263.31,75 -224.94,1459.9 -224.94,1459.9 526.66,-73.5 1086.99,-588.4 1086.99,-588.4 734.69,-865.9 -344.08,-2337.7 109.14,-2937.8 h 0.02 c 0,0 98.14,-108.6 210.63,-301.5 l -137.24,-21.1 c -16.88,35 -34.72,68.7 -53.66,100.7 l -0.36,0.6 -0.83,1.4 c -12.67,19.8 -30.83,47.8 -53.33,82 l -0.1,0.1 -0.1,0.2 c -54.58,75.6 -92.25,131.9 -116.91,172.9 l -0.21,0.4 c -165.33,238.3 -522.74,621.4 -529.61,597.9 C 8230.77,3155.3 7069.1,2890.4 6394,2923.8 c -675.09,33.4 -418.28,262 -112.07,615.8 306.22,353.9 1056.7,388.7 1256.74,539.8 200.04,151 -136.88,219.4 -567.99,118.6 -431.1,-100.8 -582.01,-570.7 -1276.42,-746.4 -694.41,-175.7 -1435.64,1067.1 -1435.64,1067.1 509.89,-76 1341.07,326.9 1348.78,499.9 4.79,107.8 -494.07,64.6 -921.37,21.4 -258.44,-26.1 -490.7,-52.2 -569.51,-45 -209.12,19.3 -623.55,367.8 -529.52,1206.8"
         style="fill:#dfebfd;fill-opacity:1;fill-rule:nonzero;stroke:none"
         id="path32" /><path
         d="m 22871.6,5610.4 c 0,0 362.1,1291.7 1158.9,1972.1 29.1,24.8 62.4,35.8 94.9,35.8 85.6,0 165.5,-76.3 147.9,-175.7 -0.4,-2.3 -0.9,-4.6 -1.3,-6.9 -45.3,-233.4 -954.7,-1106.2 -1400.4,-1825.3"
         style="fill:#d8e8fd;fill-opacity:1;fill-rule:nonzero;stroke:none"
         id="path34" /><path
         d="m 22978,5611.2 c 356.7,490.4 1069.9,1344.7 1942.5,1724.3 20.8,9.1 42.8,13.4 64.5,13.4 58.3,0 114.5,-31.3 140.9,-86.4 23.7,-49.2 26.6,-120.9 -24.6,-224 -111.8,-225.2 -1091.4,-785 -1883,-1387.9 -87.1,-9.6 -169.3,-24.2 -240.3,-39.4"
         style="fill:#d8e8fd;fill-opacity:1;fill-rule:nonzero;stroke:none"
         id="path36" /><path
         d="m 22731,5246.4 c 0,0 88.1,146.3 247,364.8 71,15.2 153.2,29.8 240.3,39.4 -175.5,-133.7 -341.8,-269.5 -487.3,-404.2"
         style="fill:#d2e4fe;fill-opacity:1;fill-rule:nonzero;stroke:none"
         id="path38" /><path
         d="m 7491.91,7024.6 c -445.72,719.2 -1355.08,1591.9 -1400.38,1825.3 -0.45,2.4 -0.89,4.7 -1.29,7 -17.63,99.4 62.24,175.7 147.87,175.7 32.47,0 65.78,-11 94.9,-35.9 796.76,-680.4 1158.9,-1972.1 1158.9,-1972.1"
         style="fill:#d8e8fd;fill-opacity:1;fill-rule:nonzero;stroke:none"
         id="path40" /><path
         d="m 7586.67,6733.3 c -15.13,4.4 -32.19,9.3 -51.08,14.6 -815.05,715 -2142.18,1440.5 -2273.36,1704.8 -51.2,103.2 -48.3,174.8 -24.66,224.1 26.45,55.1 82.62,86.4 140.91,86.4 21.7,0 43.71,-4.4 64.57,-13.4 1097.02,-477.4 1942.16,-1704.9 2143.62,-2016.5"
         style="fill:#d8e8fd;fill-opacity:1;fill-rule:nonzero;stroke:none"
         id="path42" /><path
         d="m 7632.57,6660.6 c -31.43,29.1 -63.74,58.2 -96.98,87.3 18.89,-5.3 35.95,-10.2 51.08,-14.6 30.15,-46.6 45.9,-72.7 45.9,-72.7"
         style="fill:#d2e4fe;fill-opacity:1;fill-rule:nonzero;stroke:none"
         id="path44" /><path
         d="m 18331.9,13726.2 -3.9,-11299 c -0.1,-371.2 -301.1,-672 -672.2,-671.9 l -5906.5,2 c -371.2,0.2 -672,301.2 -671.9,672.4 l 3.9,11299 c 0.1,371 301.1,671.8 672.3,671.7 l 5906.6,-2 c 371,-0.2 671.8,-301.2 671.7,-672.2"
         style="fill:#c2cfff;fill-opacity:1;fill-rule:nonzero;stroke:none"
         id="path46" /><path
         d="m 11753.6,14316.1 c -324.1,0.1 -587.8,-263.5 -588,-587.5 l -3.8,-11299 c -0.2,-324.1 263.4,-587.8 587.5,-587.9 l 5906.5,-2.1 c 324,-0.1 587.8,263.5 587.9,587.5 l 3.9,11299 c 0.1,324.1 -263.5,587.8 -587.5,588 l -5906.5,2 m 5902.1,-12645.2 -5906.5,2.1 c -417.1,0.1 -756.3,339.6 -756.2,756.6 l 3.9,11299 c 0.2,417.1 339.6,756.3 756.7,756.2 l 5906.5,-2 c 417.1,-0.2 756.3,-339.6 756.2,-756.7 l -3.9,-11299 c -0.1,-417.1 -339.6,-756.3 -756.7,-756.2"
         style="fill:#163560;fill-opacity:1;fill-rule:nonzero;stroke:none"
         id="path48" /><path
         d="m 12183.4,13327 -99.3,-71.3 -99.8,70.6 c 22.1,31.1 58.7,51.6 99.9,51.6 40.9,0 77.1,-20 99.2,-50.9"
         style="fill:#ffffff;fill-opacity:1;fill-rule:nonzero;stroke:none"
         id="path50" /><path
         d="m 12084.2,13551.6 c -99.8,0 -188.1,-49.6 -241.6,-125.5 l 63,-44.2 c 39.6,56 105,92.5 178.6,92.5 73,0 137.9,-36 177.5,-91.4 l 62.8,45 c -53.8,74.9 -141.5,123.6 -240.3,123.6"
         style="fill:#ffffff;fill-opacity:1;fill-rule:nonzero;stroke:none"
         id="path52" /><path
         d="m 12084.3,13881.7 c -211.2,0 -398,-104.9 -511.3,-265.4 l 63.1,-44.2 c 99.3,140.4 263.2,232.5 448.2,232.4 183.4,-0.1 346.2,-90.7 445.8,-229.4 l 62.5,45 c -113.4,158.3 -298.9,261.5 -508.3,261.6"
         style="fill:#ffffff;fill-opacity:1;fill-rule:nonzero;stroke:none"
         id="path54" /><path
         d="m 12084.3,13701.1 c -150.3,0 -283.6,-74.3 -364.6,-188.2 l 63,-44.3 c 67.1,93.9 177.3,155.3 301.5,155.3 123.3,-0.1 232.6,-60.5 300,-153.2 l 62.5,44.7 c -81.3,112.5 -213.5,185.6 -362.4,185.7"
         style="fill:#ffffff;fill-opacity:1;fill-rule:nonzero;stroke:none"
         id="path56" /><path
         d="m 13410.2,15575.8 c 0,0 -430.7,207 -987.2,93.3 0,0 636.5,43.5 1013.9,-360.5 0,0 264,404.7 700.3,497.5 0,0 -325.1,38.8 -727,-230.3"
         style="fill:#9fc1f4;fill-opacity:1;fill-rule:nonzero;stroke:none"
         id="path58" /><path
         d="m 12196.4,15770.8 c 0,0 -332.2,162 -763.1,76.6 0,0 492.5,30.7 782.5,-283.4 0,0 206,311.8 543.9,381.6 0,0 -251.3,31.5 -563.3,-174.8"
         style="fill:#9fc1f4;fill-opacity:1;fill-rule:nonzero;stroke:none"
         id="path60" /><path
         d="m 11124.9,15918.5 c 0,0 -308.4,134.5 -697.1,40.3 0,0 446.8,46.9 722.8,-227.7 0,0 175.3,291.6 479.9,368.1 0,0 -229.7,18.9 -505.6,-180.7"
         style="fill:#9fc1f4;fill-opacity:1;fill-rule:nonzero;stroke:none"
         id="path62" /><path
         d="m 10524.2,16228.4 c 0,0 -216.4,71.2 -472.6,-16.9 0,0 298.3,59.9 501.7,-107.9 0,0 99.9,207.7 300.5,278.5 0,0 -156.2,-1.7 -329.6,-153.7"
         style="fill:#9fc1f4;fill-opacity:1;fill-rule:nonzero;stroke:none"
         id="path64" /><path
         d="m 12674.6,16990.4 c 0,0 -212.5,82.4 -472.9,7.8 0,0 301.1,44.2 495.5,-133.9 0,0 110.5,202.2 314.5,262.4 0,0 -156,6.4 -337.1,-136.3"
         style="fill:#9fc1f4;fill-opacity:1;fill-rule:nonzero;stroke:none"
         id="path66" /><path
         d="m 13721.6,16256.4 c 0,0 -296.4,149.4 -684.5,77.9 0,0 442.7,21.7 699.5,-263.9 0,0 188.8,277.6 493.1,336.3 0,0 -225.4,31.2 -508.1,-150.3"
         style="fill:#9fc1f4;fill-opacity:1;fill-rule:nonzero;stroke:none"
         id="path68" /><path
         d="m 13308.4,16720.2 c 0,0 -279.1,127.7 -635.1,48.1 0,0 408.2,35.5 655.4,-219.4 0,0 164.7,263.1 443.8,327.9 0,0 -209.3,21 -464.1,-156.6"
         style="fill:#9fc1f4;fill-opacity:1;fill-rule:nonzero;stroke:none"
         id="path70" /><path
         d="m 21409.8,12536.1 c 0,270.9 220.8,491.6 491.6,491.6 272.1,0 491.6,-220.7 491.6,-491.6 0,-272.1 -219.5,-491.6 -491.6,-491.6 -270.8,0 -491.6,219.5 -491.6,491.6 z m -342.7,-52.6 c 0,-495.4 834.3,-1287.4 834.3,-1287.4 0,0 834.3,792 834.3,1287.4 0,495.5 -373.5,897.2 -834.3,897.2 -460.8,0 -834.3,-401.7 -834.3,-897.2"
         style="fill:#f78e48;fill-opacity:1;fill-rule:nonzero;stroke:none"
         id="path72" /><path
         d="m 18547.4,15687.5 c 0,260.2 212.1,472.2 472.2,472.2 261.4,0 472.2,-212 472.2,-472.2 0,-261.4 -210.8,-472.2 -472.2,-472.2 -260.1,0 -472.2,210.8 -472.2,472.2 z m -329.2,-50.5 c 0,-475.9 801.4,-1236.6 801.4,-1236.6 0,0 801.4,760.7 801.4,1236.6 0,475.9 -358.8,861.7 -801.4,861.7 -442.6,0 -801.4,-385.8 -801.4,-861.7"
         style="fill:#f78e48;fill-opacity:1;fill-rule:nonzero;stroke:none"
         id="path74" /><path
         d="m 23209.1,1997.4 h -1976.8 c -189.6,0 -343.2,153.6 -343.2,343.2 v 44.8 h 2637.3 v -70.7 c 0,-175.2 -142,-317.3 -317.3,-317.3"
         style="fill:#163560;fill-opacity:1;fill-rule:nonzero;stroke:none"
         id="path76" /><path
         d="M 23616.9,5643.4 V 2495.9 c 0,-37.9 -4.2,-74.9 -12.2,-110.5 h -369.2 c -57.3,0 -110.8,-16.7 -155.8,-45.5 -27.8,-17.7 -52.4,-40.1 -72.6,-66.1 -38.5,-49.1 -61.3,-111.1 -61.3,-178.3 v -98.1 h -1446.2 v 98.1 c 0,101.2 -51.7,190.3 -130.3,242.2 -22.2,14.6 -46.6,26.3 -72.6,34.5 -27.4,8.6 -56.6,13.2 -86.8,13.2 h -399 c -8.1,35.6 -12.3,72.6 -12.3,110.5 v 3147.5 c 0,275.4 222.9,498.6 498.1,498.6 h 1822.1 c 275.2,0 498.1,-223.2 498.1,-498.6"
         style="fill:#f78248;fill-opacity:1;fill-rule:nonzero;stroke:none"
         id="path78" /><path
         d="m 22738.4,6143.7 c -652.7,257.2 -1108,4 -1112.6,1.4 l -23.5,41 c 4.9,2.8 121.2,68.8 322.3,102.2 184.7,30.7 478.9,38.2 831.1,-100.7 l -17.3,-43.9"
         style="fill:#163560;fill-opacity:1;fill-rule:nonzero;stroke:none"
         id="path80" /><path
         d="m 21258.1,1883.1 h -190.9 v 260 h 190.9 v -260"
         style="fill:#163560;fill-opacity:1;fill-rule:nonzero;stroke:none"
         id="path82" /><path
         d="m 21026.9,1843.7 c 0,75.1 60.8,135.9 135.8,135.9 75,0 135.8,-60.8 135.8,-135.9 0,-75.1 -60.8,-135.9 -135.8,-135.9 -75,0 -135.8,60.8 -135.8,135.9"
         style="fill:#1f4777;fill-opacity:1;fill-rule:nonzero;stroke:none"
         id="path84" /><path
         d="m 21080.2,1843.7 c 0,45.6 36.9,82.5 82.5,82.5 45.5,0 82.4,-36.9 82.4,-82.5 0,-45.6 -36.9,-82.5 -82.4,-82.5 -45.6,0 -82.5,36.9 -82.5,82.5"
         style="fill:#163560;fill-opacity:1;fill-rule:nonzero;stroke:none"
         id="path86" /><path
         d="m 23221.4,1883.1 h -190.9 v 260 h 190.9 v -260"
         style="fill:#163560;fill-opacity:1;fill-rule:nonzero;stroke:none"
         id="path88" /><path
         d="m 22990.1,1843.7 c 0,75.1 60.8,135.9 135.8,135.9 75,0 135.8,-60.8 135.8,-135.9 0,-75.1 -60.8,-135.9 -135.8,-135.9 -75,0 -135.8,60.8 -135.8,135.9"
         style="fill:#1f4777;fill-opacity:1;fill-rule:nonzero;stroke:none"
         id="path90" /><path
         d="m 23043.5,1843.7 c 0,45.6 36.9,82.5 82.4,82.5 45.6,0 82.5,-36.9 82.5,-82.5 0,-45.6 -36.9,-82.5 -82.5,-82.5 -45.5,0 -82.4,36.9 -82.4,82.5"
         style="fill:#163560;fill-opacity:1;fill-rule:nonzero;stroke:none"
         id="path92" /><path
         d="M 21369.3,6142 V 2337.7 c -22.2,14.6 -46.6,26.3 -72.6,34.5 V 6142 h 72.6"
         style="fill:#e06832;fill-opacity:1;fill-rule:nonzero;stroke:none"
         id="path94" /><path
         d="M 21950.6,6142 V 1997.4 h -72.7 V 6142 h 72.7"
         style="fill:#e06832;fill-opacity:1;fill-rule:nonzero;stroke:none"
         id="path96" /><path
         d="M 22493,6142 V 1997.4 h -72.7 V 6142 h 72.7"
         style="fill:#e06832;fill-opacity:1;fill-rule:nonzero;stroke:none"
         id="path98" /><path
         d="M 23079.7,6142 V 2339.9 c -27.8,-17.7 -52.4,-40.1 -72.6,-66.1 V 6142 h 72.6"
         style="fill:#e06832;fill-opacity:1;fill-rule:nonzero;stroke:none"
         id="path100" /><path
         d="m 19224.4,7771.6 c -0.1,5.4 79.4,169.7 54.2,182.4 -25.3,12.6 -70.6,10.7 -75.9,-18.1 -5.3,-28.8 21.7,-164.3 21.7,-164.3"
         style="fill:#ffb27d;fill-opacity:1;fill-rule:nonzero;stroke:none"
         id="path102" /><path
         d="m 19254.4,7673.5 c 0,16.1 -18.6,262.2 -60.2,311.2 -41.4,48.9 -126.2,118.6 -152.9,116.5 -26.6,-2.2 -130.9,-140.7 -99.5,-246.8 31.3,-106.2 163.6,-249.8 163.6,-249.8 l 149,68.9"
         style="fill:#ffb27d;fill-opacity:1;fill-rule:nonzero;stroke:none"
         id="path104" /><path
         d="m 19412.6,7971.6 -241.7,-72.4 c -8,-2.4 -16.4,2.1 -18.8,10.2 l -138.1,460.7 c -2.4,8 2.1,16.5 10.2,18.9 l 241.6,72.4 c 8,2.4 16.4,-2.2 18.8,-10.2 l 138.1,-460.7 c 2.4,-8 -2.1,-16.5 -10.1,-18.9"
         style="fill:#f1a34f;fill-opacity:1;fill-rule:nonzero;stroke:none"
         id="path106" /><path
         d="m 19349.8,7952.8 -219.2,-65.7 c -14.2,-4.2 -29.2,3.8 -33.4,18 l -131.4,438.3 c -4.3,14.2 3.8,29.2 18,33.5 l 219.2,65.7 c 14.2,4.2 29.2,-3.8 33.5,-18.1 l 131.3,-438.2 c 4.3,-14.3 -3.8,-29.2 -18,-33.5"
         style="fill:#d86713;fill-opacity:1;fill-rule:nonzero;stroke:none"
         id="path108" /><path
         d="m 19016.4,8083.3 c 0,0 100.6,154.8 125.2,146.2 35.1,-12.3 -91.2,-208.8 -91.2,-208.8 0,0 93.6,146.8 108.2,135.8 33.3,-25.2 -19.7,-117.4 -72.3,-188.1 0,0 94.1,86.2 97.2,70.6 10.7,-54.3 -103.3,-186.1 -103.3,-186.1 l -63.8,145.6 v 84.8"
         style="fill:#ffb27d;fill-opacity:1;fill-rule:nonzero;stroke:none"
         id="path110" /><path
         d="m 18940.9,7939.5 c 4.9,18.9 29.5,388.7 40,353.6 10.5,-35.1 35.5,-228.9 35.5,-228.9 l -75.5,-124.7"
         style="fill:#ffb27d;fill-opacity:1;fill-rule:nonzero;stroke:none"
         id="path112" /><path
         d="m 20546.7,8041.3 c 0,0 -10.5,-401.9 -126.5,-726.4 -91.5,-256.2 -248.9,-464 -518.7,-387.2 -27.6,7.8 -54.3,16.3 -80.3,25.3 l -0.3,0.2 c -548.3,191 -725.7,628.1 -725.7,628.1 40.9,67.4 159.1,92.2 159.1,92.2 110.4,-6 595.7,-212 626.6,-218.3 112.3,-22.5 202.9,594.2 275.9,807.8 72.9,213.7 371.4,309.3 371.4,309.3 l 18.5,-531"
         style="fill:#739af0;fill-opacity:1;fill-rule:nonzero;stroke:none"
         id="path114" /><path
         d="m 20430.8,7604.6 -10.6,-289.7 c -91.5,-256.2 -248.9,-464 -518.7,-387.2 -27.6,7.8 -54.3,16.3 -80.3,25.3 8.7,-1.1 173.9,-23.4 243,45.7 71,71.2 63.6,306.8 194.5,463.9 130.9,157.1 172.1,142 172.1,142"
         style="fill:#5283db;fill-opacity:1;fill-rule:nonzero;stroke:none"
         id="path116" /><path
         d="m 20445.9,2307.6 c 0,0 135,-123.2 108.6,-210.7 -26.3,-87.5 -148.1,-145.8 -164.5,-252.7 -16.5,-107 -82.3,-165.3 -141.6,-165.3 -59.2,0 -282.4,0 -282.4,0 0,0 -43.6,75.2 61.7,97.9 105.3,22.7 145,148.4 138.5,265 -6.6,116.7 9.8,272.3 9.8,272.3 l 223.8,51.8 46.1,-58.3"
         style="fill:#133054;fill-opacity:1;fill-rule:nonzero;stroke:none"
         id="path118" /><path
         d="m 18959.2,1701.3 h 831.6 c 32.6,0 59.4,25.8 60.3,58.4 1.3,48.8 -2.8,119.6 -29.8,179.4 -44.4,98.4 -72.4,115.6 115.1,402 -56.4,-58 -208.4,-31.5 -336.7,-14.2 -15.7,-25.5 -253.7,-393.2 -306.2,-430.9 -57.9,-41.6 -316.5,-26.8 -334.3,-194.7"
         style="fill:#163560;fill-opacity:1;fill-rule:nonzero;stroke:none"
         id="path120" /><path
         d="m 20255,6312.9 c 0,0 -603,-1137.7 -766.9,-1764.2 -127.1,-486.2 649,-2367.7 649,-2367.7 0,0 63.4,4.2 166.9,44.9 101.7,39.9 140.3,147 140.3,147 0,0 -46,1345.3 -203.1,1996.1 -35.2,146.1 170.9,617.4 518.7,875.5 347.9,258.1 492.7,1088.4 285.6,1144.6 -207,56.1 -790.5,-76.2 -790.5,-76.2"
         style="fill:#163560;fill-opacity:1;fill-rule:nonzero;stroke:none"
         id="path122" /><path
         d="m 20771.1,6635.9 c 0,0 -633.8,-2323.6 -826.1,-2845.3 -192.3,-521.8 -497.2,-1629.2 -497.2,-1629.2 0,0 192.8,-90.5 439.7,-47.7 0,0 926.8,1357.8 967.1,1957.9 18.7,277.4 951,1377.1 847.1,2094.1 l -930.6,470.2"
         style="fill:#1c468a;fill-opacity:1;fill-rule:nonzero;stroke:none"
         id="path124" /><path
         d="m 21700.2,5910.9 c 0,0 -134.9,-68 -373.4,-88 h -0.2 c -273,-22.9 -681.9,17.3 -1179.9,294.6 0,0 -139,114.5 31.7,601.2 129.2,368.6 192.1,1145.5 349.8,1853.6 0,0 511.5,160.5 921.8,21.8 313.6,-106.1 282.4,-587.2 340.3,-1088.3 5.4,-46.8 11.5,-93.7 18.8,-140.5 85.6,-548.5 -108.9,-1454.4 -108.9,-1454.4"
         style="fill:#739af0;fill-opacity:1;fill-rule:nonzero;stroke:none"
         id="path126" /><path
         d="m 20347.9,9620.6 c 0,0 349.1,568.2 619.4,275.8 0,0 176.8,-45.2 278,-320.3 103.3,-280.8 -57.6,-528.7 -165,-488.6 -68.9,25.6 -101.1,-93.1 -101.1,-93.1 l -631.3,626.2"
         style="fill:#233862;fill-opacity:1;fill-rule:nonzero;stroke:none"
         id="path128" /><path
         d="m 20913.8,9941.2 c 0,0 24,235.3 367.8,212.4 0,0 -162.6,-2.9 -197.5,-70.7 0,0 118.2,76.1 204.4,39.1 86.3,-37.1 122.8,-198.4 118.2,-249.8 -4.7,-51.4 -70.9,-211.9 -128.9,-220.2 -57.9,-8.4 -133.9,32.6 -133.9,32.6 l -230.1,256.6"
         style="fill:#233862;fill-opacity:1;fill-rule:nonzero;stroke:none"
         id="path130" /><path
         d="m 21087,8608.5 c -32.3,86 -80.4,176.4 -119,451.2 l -20.6,-7.2 -347.1,-122.3 c 0,0 24.4,-111.2 39.9,-217.1 6.3,-43.2 10.9,-120.5 13.8,-188 3.1,-68.9 70.9,-75.5 139.8,-72.3 183.5,8.5 284.6,77 293.2,155.7"
         style="fill:#ffb27d;fill-opacity:1;fill-rule:nonzero;stroke:none"
         id="path132" /><path
         d="m 20600.3,8930.2 c 0,0 24.4,-111.2 39.9,-217.1 199.1,34.5 278.4,232.1 307.2,339.4 l -347.1,-122.3"
         style="fill:#e8945b;fill-opacity:1;fill-rule:nonzero;stroke:none"
         id="path134" /><path
         d="m 20978.6,9096.7 c 0,0 80.9,180.6 85.7,325.7 3.4,103.7 -102.1,470.8 -470.7,362.6 0,0 -107.7,-26.5 -200.5,-110.8 -73.7,-66.9 -174.5,-203.1 4.5,-510.9 l 50.1,-105.4 530.9,38.8"
         style="fill:#233862;fill-opacity:1;fill-rule:nonzero;stroke:none"
         id="path136" /><path
         d="m 20548,8820.3 c 0,0 474.1,60.4 432,355.1 -42.2,294.6 -9.4,500.8 -313.8,474.7 -304.5,-26.1 -347.1,-146.9 -356.9,-248.6 -9.9,-101.8 114.3,-589.3 238.7,-581.2"
         style="fill:#ffb27d;fill-opacity:1;fill-rule:nonzero;stroke:none"
         id="path138" /><path
         d="m 20449.7,9626.3 c 0,0 179.3,-327 385.4,-349.4 206.1,-22.5 284.6,43.2 284.6,43.2 0,0 -169.8,99.1 -231.9,305.9 0,0 -364.1,178.9 -438.1,0.3"
         style="fill:#233862;fill-opacity:1;fill-rule:nonzero;stroke:none"
         id="path140" /><path
         d="m 20485.9,9602.9 c 0,0 -85.6,-91.1 -98.4,-169.6 -12.7,-78.4 -1.1,-234.3 -46.8,-235.6 0,0 -131.5,220.9 -41,369.6 96,157.7 186.2,35.6 186.2,35.6"
         style="fill:#233862;fill-opacity:1;fill-rule:nonzero;stroke:none"
         id="path142" /><path
         d="m 20469.6,9588.6 c 0,0 144.4,-348.6 411.9,-428.4 0,0 -282.8,186.2 -338.6,422.1 -55.7,235.8 -73.3,6.3 -73.3,6.3"
         style="fill:#233862;fill-opacity:1;fill-rule:nonzero;stroke:none"
         id="path144" /><path
         d="m 21700.2,5910.9 c 0,0 -134.9,-68 -373.4,-88 h -0.2 c 0,0 -195.9,245.7 22.7,520.9 218.6,275.3 -17.1,783.2 151.2,1059.5 117.2,192.2 231.2,147.4 289.8,102.5 5.4,-46.8 11.5,-93.7 18.8,-140.5 85.6,-548.5 -108.9,-1454.4 -108.9,-1454.4"
         style="fill:#5283db;fill-opacity:1;fill-rule:nonzero;stroke:none"
         id="path146" /><path
         d="m 22560.2,6319.2 c 0,0 29,-67.7 69.6,-72.2 66.3,-7.4 192.6,-63 212.4,-74.7 53.7,-31.9 50.1,-174.6 -3.6,-188 -53.8,-13.5 -80.6,106.3 -248.5,138.3 -56.9,10.9 -139.9,-28.4 -173.5,108 l 143.6,88.6"
         style="fill:#ffb27d;fill-opacity:1;fill-rule:nonzero;stroke:none"
         id="path148" /><path
         d="m 21450,8594.1 c 488.2,-179.6 506.2,-1044.3 723.8,-1425.2 224.5,-392.7 443,-909.7 443,-909.7 0,0 -3.9,-15.4 -87.6,-39.4 -59,-16.9 -120.5,-9.7 -120.5,-9.7 0,0 -461.1,417.2 -586.5,581.7 -125.3,164.6 -420.7,928.2 -420.7,928.2 0,0 -145.2,945.4 48.5,874.1"
         style="fill:#739af0;fill-opacity:1;fill-rule:nonzero;stroke:none"
         id="path150" /><path
         d="m 22428.7,6196.8 c 0,0 11.8,-58.1 83.8,-105.1 72,-47 129.7,-94 136.7,-64.9 6.9,29.1 -40.1,60.4 -51.3,114.1 -11.2,53.7 -169.2,55.9 -169.2,55.9"
         style="fill:#ffb27d;fill-opacity:1;fill-rule:nonzero;stroke:none"
         id="path152" /><path
         d="m 11161.8,3948.6 h 7083.7 v 5127.9 h -7083.7 z"
         style="fill:#f78e48;fill-opacity:1;fill-rule:nonzero;stroke:none"
         id="path154" /><path
         d="M 16462,2556.8 V 1865 c 0,-8.5 -0.1,-17 -0.5,-25.4 h -3542.3 c -0.3,8.4 -0.5,16.9 -0.5,25.4 v 691.8 c 0,315.5 203.7,573.7 452.6,573.7 h 2638.1 c 248.9,0 452.6,-258.2 452.6,-573.7"
         style="fill:#f78248;fill-opacity:1;fill-rule:nonzero;stroke:none"
         id="path156" /><path
         d="m 14686.8,2250.3 -228,204.1 64.1,71.6 147.2,-131.9 203.9,291.6 78.7,-55 -265.9,-380.4"
         style="fill:#ffe3ca;fill-opacity:1;fill-rule:nonzero;stroke:none"
         id="path158" /><path
         d="m 14705.7,2882 c -228.2,0 -414,-185.7 -414,-414 0,-228.3 185.8,-414 414,-414 228.3,0 414,185.7 414,414 0,228.3 -185.7,414 -414,414 z m 0,-850.4 c -240.6,0 -436.4,195.8 -436.4,436.4 0,240.7 195.8,436.4 436.4,436.4 240.7,0 436.5,-195.7 436.5,-436.4 0,-240.6 -195.8,-436.4 -436.5,-436.4"
         style="fill:#ffe3ca;fill-opacity:1;fill-rule:nonzero;stroke:none"
         id="path160" /><path
         d="m 11796.1,12412.7 c 0,0 164,365.2 556.3,324.7 0,0 569.4,608.7 1176.7,81.1 0,0 645.5,130.8 1123.5,-113.2 318.7,-162.6 424,-333.2 424,-333.2 l -3280.5,40.6"
         style="fill:#ebf3fa;fill-opacity:1;fill-rule:nonzero;stroke:none"
         id="path162" /><path
         d="m 14106.4,13276.1 c 2.1,0.1 4.1,0.1 6.2,0.1 24.8,0.5 48.7,9.4 67.1,26.2 82.5,75.4 333.8,263 604.4,47.5 21.2,-16.9 48.5,-23.9 75.3,-20 104.5,15.3 377.6,40 591.4,-74.5 5.8,-3.1 11.5,-6.2 17.1,-9.4 89,-49.9 51.6,-186 -50.4,-184.7 l -1308.2,17 c -128.2,1.7 -131,193 -2.9,197.8"
         style="fill:#ebf3fa;fill-opacity:1;fill-rule:nonzero;stroke:none"
         id="path164" /><path
         d="m 15967.9,8505.4 c -217.8,0 -395,-177.3 -395,-395.1 V 5140.8 c 0,-217.8 177.2,-395 395,-395 h 1406.2 c 217.8,0 395,177.2 395,395 v 2969.5 c 0,217.8 -177.2,395.1 -395,395.1 z m 1406.2,-3804.5 h -1406.2 c -242.5,0 -439.9,197.3 -439.9,439.9 v 2969.5 c 0,242.6 197.4,439.9 439.9,439.9 h 1406.2 c 242.5,0 439.9,-197.3 439.9,-439.9 V 5140.8 c 0,-242.6 -197.4,-439.9 -439.9,-439.9"
         style="fill:#ffe3ca;fill-opacity:1;fill-rule:nonzero;stroke:none"
         id="path166" /><path
         d="m 14890.4,6614.6 h -2031.5 c -178.8,0 -323.7,144.9 -323.7,323.7 v 1265.8 c 0,178.8 144.9,323.7 323.7,323.7 h 2031.5 c 178.7,0 323.6,-144.9 323.6,-323.7 V 6938.3 c 0,-178.8 -144.9,-323.7 -323.6,-323.7"
         style="fill:#ffe3ca;fill-opacity:1;fill-rule:nonzero;stroke:none"
         id="path168" /><path
         d="m 12828.9,6276.6 c -149.6,0 -271.3,-121.7 -271.3,-271.3 v -988.2 c 0,-149.6 121.7,-271.3 271.3,-271.3 h 2091.4 c 149.6,0 271.3,121.7 271.3,271.3 v 988.2 c 0,149.6 -121.7,271.3 -271.3,271.3 z m 2091.4,-1575.7 h -2091.4 c -174.3,0 -316.1,141.8 -316.1,316.2 v 988.2 c 0,174.3 141.8,316.2 316.1,316.2 h 2091.4 c 174.3,0 316.1,-141.9 316.1,-316.2 v -988.2 c 0,-174.4 -141.8,-316.2 -316.1,-316.2"
         style="fill:#ffe3ca;fill-opacity:1;fill-rule:nonzero;stroke:none"
         id="path170" /><path
         d="m 16326.6,7499.9 c 0,189.7 154.6,344.4 344.4,344.4 190.7,0 344.4,-154.7 344.4,-344.4 0,-190.7 -153.7,-344.5 -344.4,-344.5 -189.8,0 -344.4,153.8 -344.4,344.5 z m -240.2,-36.9 c 0,-347.1 584.6,-902 584.6,-902 0,0 584.6,554.9 584.6,902 0,347.1 -261.8,628.6 -584.6,628.6 -322.9,0 -584.6,-281.5 -584.6,-628.6"
         style="fill:#ffe3ca;fill-opacity:1;fill-rule:nonzero;stroke:none"
         id="path172" /><path
         d="m 14941.1,7261.1 -27.6,-0.2 c -1,0 -1.9,-0.2 -2.9,-0.4 l -212.2,-58 c -2.6,-0.7 -5.4,-0.4 -7.8,0.7 l -298.2,114.9 c -7.7,3.6 38.5,26.1 45.3,31.1 74.6,54.3 311.1,186.6 400,245.3 14.2,9.4 10.3,31.3 -6.3,35.1 -8,1.9 -16.4,1.4 -24.1,-1.4 l -434.4,-157.7 -58.4,37 c -8.5,5.3 -19.8,2.8 -25.2,-5.7 l -28.6,-45.3 c -5.3,-8.3 -2.9,-19.4 5.2,-24.9 l -55.9,-20.3 c -2.7,-1 -5.6,-0.9 -8.2,0.2 l -267.4,114 c -23.6,10.1 -50.1,11.7 -74.8,4.5 -10,-2.9 -20.8,-6.1 -30.8,-9 -20.7,-6.1 -32.1,-28.3 -25.1,-48.7 l 3.5,-10.3 c 11.5,-33.5 37.3,-60.2 70.4,-72.6 l 216.8,-81.6 c 4.3,-1.6 7.2,-5.7 7.3,-10.3 l 1.9,-93.6 -12.4,7.8 c -8.5,5.4 -19.8,2.8 -25.2,-5.6 l -28.6,-45.3 c -5.3,-8.5 -2.8,-19.9 5.7,-25.2 l 62.7,-39.8 3.1,-146.2 c 0.2,-11.8 3.9,-23.3 10.7,-32.9 8.6,-12.4 17.6,-26.1 20.8,-24.6 10.3,4.6 108.5,229.7 141.9,318.3 1.9,5 44.5,-10.9 49.5,-12.8 l 295.6,-90.3 c 3.8,-1.5 6.5,-4.8 7.1,-8.8 l 13.1,-86.3 c 1.5,-9.6 6.2,-18.5 13.4,-25.1 l 0.3,-0.3 c 5.1,-4.7 13.1,-3.7 16.9,2.1 l 68.8,105.3 c 1.9,3.1 5.3,5 9,5.1 l 31.7,1 c 9.9,0.3 14.5,12.4 7.4,19.3 l -7.7,7.4 160.3,113.8 c 9,6.3 4.4,20.4 -6.6,20.3"
         style="fill:#f78e48;fill-opacity:1;fill-rule:nonzero;stroke:none"
         id="path174" /><path
         d="m 14515.2,5900.5 c -214.7,0 -389.3,-174.6 -389.3,-389.3 0,-214.7 174.6,-389.4 389.3,-389.4 214.7,0 389.4,174.7 389.4,389.4 0,214.7 -174.7,389.3 -389.4,389.3 z m 0,-826.5 c -241.1,0 -437.2,196.1 -437.2,437.2 0,241.1 196.1,437.2 437.2,437.2 241.1,0 437.3,-196.1 437.3,-437.2 0,-241.1 -196.2,-437.2 -437.3,-437.2"
         style="fill:#ffe3ca;fill-opacity:1;fill-rule:nonzero;stroke:none"
         id="path176" /><path
         d="m 14515.4,5452.5 h -6 c -8.3,0 -15.2,6.9 -15.2,15.2 v 243.6 c 0,8.3 6.9,15.2 15.2,15.2 h 6 c 8.4,0 15.2,-6.9 15.2,-15.2 v -243.6 c 0,-8.3 -6.8,-15.2 -15.2,-15.2"
         style="fill:#ffe3ca;fill-opacity:1;fill-rule:nonzero;stroke:none"
         id="path178" /><path
         d="m 14507.2,5460.4 -0.5,0.6 c -3.4,3.4 -3.4,8.9 0,12.3 l 243.1,243.1 c 3.4,3.4 8.9,3.4 12.3,0 l 0.5,-0.5 c 3.4,-3.4 3.4,-9 0,-12.4 l -243.1,-243.1 c -3.4,-3.3 -8.9,-3.3 -12.3,0"
         style="fill:#ffe3ca;fill-opacity:1;fill-rule:nonzero;stroke:none"
         id="path180" /><path
         d="m 14488.5,5469.2 c 0,13.2 10.7,23.9 23.9,23.9 13.2,0 23.9,-10.7 23.9,-23.9 0,-13.2 -10.7,-23.9 -23.9,-23.9 -13.2,0 -23.9,10.7 -23.9,23.9"
         style="fill:#ffe3ca;fill-opacity:1;fill-rule:nonzero;stroke:none"
         id="path182" /><path
         d="m 13784.8,5935.2 h -961.3 v 99.7 h 961.3 v -99.7"
         style="fill:#ffe3ca;fill-opacity:1;fill-rule:nonzero;stroke:none"
         id="path184" /><path
         d="m 13784.8,5706.9 h -961.3 v 100.4 h 961.3 v -100.4"
         style="fill:#ffe3ca;fill-opacity:1;fill-rule:nonzero;stroke:none"
         id="path186" /><path
         d="m 13399.9,5478.6 h -576.4 V 5579 h 576.4 v -100.4"
         style="fill:#ffe3ca;fill-opacity:1;fill-rule:nonzero;stroke:none"
         id="path188" /><path
         d="m 17151.7,5930.9 h -961.4 v 99.7 h 961.4 v -99.7"
         style="fill:#ffe3ca;fill-opacity:1;fill-rule:nonzero;stroke:none"
         id="path190" /><path
         d="m 17151.7,5702.6 h -961.4 V 5803 h 961.4 v -100.4"
         style="fill:#ffe3ca;fill-opacity:1;fill-rule:nonzero;stroke:none"
         id="path192" /><path
         d="m 16766.8,5474.4 h -576.5 v 100.4 h 576.5 v -100.4"
         style="fill:#ffe3ca;fill-opacity:1;fill-rule:nonzero;stroke:none"
         id="path194" /><path
         d="m 13844.4,7988 h -961.3 v 99.8 h 961.3 V 7988"
         style="fill:#f78e48;fill-opacity:1;fill-rule:nonzero;stroke:none"
         id="path196" /><path
         d="m 13844.4,7759.8 h -961.3 v 100.4 h 961.3 v -100.4"
         style="fill:#f78e48;fill-opacity:1;fill-rule:nonzero;stroke:none"
         id="path198" /><path
         d="m 13459.6,7531.5 h -576.5 v 100.4 h 576.5 v -100.4"
         style="fill:#f78e48;fill-opacity:1;fill-rule:nonzero;stroke:none"
         id="path200" /><path
         d="m 20290.6,17831.9 -1.7,0.1 c -35.7,2.7 -70.9,2.9 -105,0.7 -12.4,-0.8 -23.1,8.5 -23.9,20.9 -0.8,12.3 8.5,23 20.9,23.9 36.3,2.4 73.6,2.1 111.4,-0.7 12.4,-1 21.6,-11.8 20.7,-24.1 -0.9,-11.8 -10.7,-20.8 -22.4,-20.8 z m 211.9,-42.5 c -2.6,0 -5.2,0.5 -7.7,1.4 -16.6,6 -33.6,11.2 -50.5,15.4 -17.1,4.2 -34.2,8.1 -50.8,11.3 -12.1,2.4 -20,14.2 -17.6,26.4 2.4,12.1 14.1,20 26.3,17.6 17.2,-3.3 35,-7.3 52.9,-11.7 18.4,-4.6 36.9,-10.2 55.1,-16.9 11.6,-4.2 17.6,-17.1 13.4,-28.7 -3.3,-9.1 -11.9,-14.8 -21.1,-14.8 z m -530.5,-4.3 c -8.9,0 -17.4,5.4 -20.9,14.2 -4.5,11.5 1.1,24.6 12.6,29.1 34.8,13.8 70.7,24.9 106.7,33.1 12,2.7 24.1,-4.9 26.8,-17 2.7,-12.1 -4.9,-24.1 -16.9,-26.8 -33.7,-7.6 -67.4,-18.1 -100,-31 -2.7,-1.1 -5.5,-1.6 -8.3,-1.6 z m 715.8,-103.3 c -5,0 -9.9,1.6 -14.1,5 -28.1,22.6 -56.9,42.7 -85.5,59.6 -10.7,6.3 -14.2,20 -7.9,30.7 6.2,10.7 20,14.3 30.7,8 30.5,-18 61.1,-39.3 90.9,-63.4 9.6,-7.8 11.2,-21.9 3.4,-31.5 -4.5,-5.5 -11,-8.4 -17.5,-8.4 z m -903.5,-3.2 c -6.9,0 -13.6,3.1 -18,9 -7.5,9.9 -5.4,24 4.5,31.4 30.3,22.7 61.5,43.2 92.7,61 10.7,6.2 24.4,2.4 30.6,-8.3 6.1,-10.8 2.4,-24.5 -8.4,-30.6 -29.5,-16.9 -59.1,-36.4 -88,-58 -4,-3 -8.8,-4.5 -13.4,-4.5 z m -159.5,-146 c -5.4,0 -10.9,1.9 -15.2,5.8 -9.1,8.4 -9.7,22.6 -1.4,31.8 25.5,27.7 51.6,54 77.7,78.1 9.1,8.4 23.3,7.8 31.7,-1.3 8.4,-9.1 7.8,-23.3 -1.3,-31.7 -25.1,-23.2 -50.3,-48.6 -75,-75.5 -4.4,-4.8 -10.4,-7.2 -16.5,-7.2 z m 1215,-3.9 c -6.5,0 -12.9,2.8 -17.4,8.2 -23.3,28.3 -47.1,54.9 -70.8,79 -8.7,8.8 -8.6,23 0.2,31.7 8.9,8.7 23.1,8.6 31.8,-0.2 24.6,-25 49.3,-52.6 73.5,-82 7.9,-9.6 6.5,-23.7 -3.1,-31.6 -4.1,-3.4 -9.2,-5.1 -14.2,-5.1 z m -1350,-165.3 c -4.5,0 -9,1.3 -12.9,4.1 -10.2,7.1 -12.6,21.1 -5.5,31.3 21.6,30.6 43.7,60.2 65.6,87.7 7.8,9.8 21.9,11.4 31.6,3.6 9.7,-7.7 11.3,-21.8 3.6,-31.5 -21.4,-26.9 -43,-55.7 -64.1,-85.7 -4.3,-6.2 -11.3,-9.5 -18.3,-9.5 z m 1475.7,-11 c -7.5,0 -14.8,3.7 -19,10.5 -19.5,31.1 -39.5,61.1 -59.4,89.1 -7.2,10.1 -4.8,24.2 5.3,31.3 10.2,7.2 24.2,4.8 31.3,-5.3 20.4,-28.7 40.9,-59.4 60.8,-91.3 6.6,-10.5 3.4,-24.3 -7.1,-30.9 -3.7,-2.3 -7.8,-3.4 -11.9,-3.4 z m -1591.8,-171.8 c -3.8,0 -7.7,1 -11.2,3 -10.7,6.2 -14.4,20 -8.2,30.7 18.6,32.2 37.6,63.7 56.4,93.5 6.7,10.5 20.5,13.6 31,6.9 10.5,-6.6 13.6,-20.5 7,-30.9 -18.6,-29.3 -37.3,-60.2 -55.5,-91.9 -4.2,-7.2 -11.7,-11.3 -19.5,-11.3 z m 1698.5,-17 c -8.2,0 -16.1,4.4 -20,12.2 -16.7,32.6 -33.8,64.5 -50.9,94.8 -6.1,10.8 -2.3,24.5 8.5,30.5 10.8,6.1 24.5,2.3 30.6,-8.5 17.4,-30.8 34.8,-63.2 51.7,-96.3 5.7,-11.1 1.3,-24.6 -9.7,-30.3 -3.3,-1.6 -6.8,-2.4 -10.2,-2.4 z m -1800.1,-174.2 c -3.3,0 -6.7,0.7 -9.9,2.3 -11.1,5.5 -15.7,18.9 -10.2,30 16.3,33.3 33,65.9 49.5,97.1 5.8,11 19.4,15.1 30.3,9.3 11,-5.8 15.2,-19.4 9.4,-30.3 -16.4,-30.8 -32.8,-63 -48.9,-95.9 -4,-7.9 -11.9,-12.5 -20.2,-12.5 z m 1892.6,-22.1 c -8.6,0 -16.9,5.1 -20.6,13.5 -14.7,33.8 -29.7,66.8 -44.5,98.3 -5.2,11.2 -0.4,24.6 10.8,29.8 11.2,5.3 24.6,0.5 29.8,-10.7 15,-31.9 30.2,-65.3 45.1,-99.4 4.9,-11.4 -0.3,-24.6 -11.6,-29.6 -2.9,-1.3 -6,-1.9 -9,-1.9 z m -1982.9,-174.8 c -3,0 -6,0.6 -8.9,1.8 -11.4,4.9 -16.6,18.1 -11.7,29.5 14.5,33.9 29.4,67.4 44.1,99.5 5.2,11.3 18.5,16.2 29.7,11.1 11.3,-5.2 16.3,-18.5 11.1,-29.8 -14.6,-31.8 -29.3,-64.9 -43.7,-98.5 -3.7,-8.5 -11.9,-13.6 -20.6,-13.6 z m 2064.7,-26.2 c -9.1,0 -17.6,5.6 -21,14.5 -13,34.2 -26.3,68 -39.5,100.5 -4.7,11.5 0.8,24.6 12.3,29.3 11.5,4.7 24.6,-0.9 29.3,-12.4 13.3,-32.8 26.7,-66.9 39.9,-101.4 4.4,-11.6 -1.5,-24.6 -13,-29 -2.7,-1 -5.4,-1.5 -8,-1.5 z m -2129.6,-132 c -2.7,0 -5.5,0.5 -8.2,1.5 -11.5,4.6 -17.2,17.6 -12.7,29.1 7.8,19.8 15.5,39.3 23.3,58.5 4.6,11.5 17.7,17 29.2,12.4 11.5,-4.7 17,-17.8 12.4,-29.3 -7.7,-19 -15.4,-38.3 -23.1,-57.9 -3.4,-8.9 -11.9,-14.3 -20.9,-14.3 z m 2202.8,-72.2 c -9.3,0 -18.1,5.9 -21.2,15.2 -11.7,34.4 -23.6,68.7 -35.6,102.1 -4.2,11.7 1.9,24.5 13.6,28.7 11.6,4.2 24.5,-1.9 28.7,-13.5 12,-33.7 24.1,-68.3 35.8,-102.9 4,-11.7 -2.3,-24.5 -14.1,-28.4 -2.4,-0.9 -4.8,-1.2 -7.2,-1.2 z m 66.3,-206.7 c -9.6,0 -18.5,6.2 -21.4,15.9 -10.6,34.6 -21.4,69.4 -32.3,103.3 -3.8,11.8 2.7,24.4 14.5,28.2 11.8,3.8 24.5,-2.7 28.3,-14.5 10.9,-34.1 21.8,-69.1 32.4,-103.9 3.6,-11.9 -3.1,-24.4 -14.9,-28 -2.2,-0.7 -4.4,-1 -6.6,-1 z m 60.5,-208.4 c -9.8,0 -18.8,6.5 -21.6,16.4 -9.6,34.9 -19.5,69.7 -29.5,104.2 -3.4,11.9 3.4,24.3 15.3,27.8 11.9,3.5 24.4,-3.4 27.8,-15.3 10.1,-34.7 20,-69.6 29.7,-104.7 3.3,-11.9 -3.7,-24.3 -15.7,-27.6 -2,-0.6 -4,-0.8 -6,-0.8 z m 55.6,-209.8 c -10,0 -19.2,6.7 -21.7,16.9 -8.9,35 -18,70 -27.2,104.8 -3.2,12 4,24.3 16,27.5 11.9,3.1 24.2,-4 27.4,-16 9.3,-35 18.4,-70.1 27.3,-105.3 3,-12 -4.2,-24.2 -16.3,-27.2 -1.8,-0.5 -3.7,-0.7 -5.5,-0.7 z m 51.3,-211.2 c -10.1,0 -19.4,7 -21.8,17.3 -8.2,35.3 -16.6,70.5 -25.1,105.7 -3,12 4.4,24.2 16.5,27.1 12,3 24.1,-4.5 27.1,-16.5 8.6,-35.3 17,-70.7 25.2,-106.1 2.8,-12 -4.7,-24.1 -16.7,-26.9 -1.8,-0.4 -3.5,-0.6 -5.2,-0.6 z m 47.5,-211.6 c -10.4,0 -19.7,7.3 -21.9,17.8 -7.6,35.1 -15.3,70.3 -23.2,105.5 -2.7,12.1 4.9,24.1 17,26.8 12.1,2.7 24.1,-4.9 26.8,-17 7.9,-35.3 15.6,-70.6 23.3,-105.9 2.6,-12.1 -5.1,-24 -17.3,-26.6 -1.6,-0.4 -3.1,-0.6 -4.7,-0.6 z m 44.1,-212.5 c -10.5,0 -19.9,7.4 -22,18.1 -7,35.2 -14.2,70.6 -21.6,106.2 -2.5,12.1 5.3,24 17.4,26.5 12.2,2.6 24,-5.3 26.5,-17.4 7.4,-35.6 14.7,-71.2 21.7,-106.5 2.5,-12.2 -5.4,-24 -17.6,-26.4 -1.5,-0.3 -2.9,-0.5 -4.4,-0.5 z m 41.1,-213.1 c -10.6,0 -20.1,7.5 -22.1,18.3 -6.5,35.3 -13.2,70.8 -20.1,106.5 -2.4,12.2 5.6,23.9 17.8,26.3 12.2,2.3 23.9,-5.6 26.3,-17.8 6.9,-35.8 13.6,-71.4 20.2,-106.8 2.2,-12.2 -5.8,-23.9 -18,-26.2 -1.4,-0.2 -2.8,-0.3 -4.1,-0.3 z m 38.2,-213.8 c -10.7,0 -20.2,7.8 -22.1,18.7 -6.1,35.2 -12.3,70.8 -18.7,106.8 -2.2,12.2 5.9,23.8 18.1,26 12.2,2.2 23.9,-5.9 26,-18.1 6.5,-36.1 12.8,-71.8 18.9,-107.1 2.1,-12.2 -6.1,-23.8 -18.4,-25.9 -1.2,-0.2 -2.5,-0.4 -3.8,-0.4 z m 35.6,-214.1 c -10.8,0 -20.3,7.8 -22.1,18.9 -5.6,35.1 -11.5,70.8 -17.5,107 -2,12.2 6.3,23.8 18.5,25.8 12.1,2 23.8,-6.2 25.8,-18.5 6,-36.2 11.9,-72 17.5,-107.2 2,-12.3 -6.3,-23.8 -18.6,-25.8 -1.2,-0.2 -2.4,-0.2 -3.6,-0.2 z m 33.2,-214.7 c -10.9,0 -20.5,8 -22.2,19.2 -5.2,35 -10.6,70.8 -16.2,107.2 -1.9,12.3 6.5,23.7 18.7,25.6 12.1,1.8 23.7,-6.5 25.6,-18.8 5.7,-36.5 11.1,-72.3 16.3,-107.4 1.8,-12.3 -6.6,-23.7 -18.9,-25.5 -1.1,-0.2 -2.2,-0.3 -3.3,-0.3 z m 30.8,-215.1 c -11,0 -20.7,8.2 -22.2,19.4 -4.8,34.8 -9.8,70.7 -15.1,107.5 -1.7,12.3 6.8,23.6 19.1,25.4 12.2,1.8 23.6,-6.8 25.3,-19 5.3,-36.9 10.3,-72.9 15.2,-107.7 1.6,-12.3 -6.9,-23.7 -19.2,-25.3 -1.1,-0.2 -2.1,-0.3 -3.1,-0.3 z m 28.4,-215.5 c -11.1,0 -20.8,8.3 -22.2,19.7 -4.3,34.2 -9,70.2 -13.9,107.6 -1.6,12.3 7,23.6 19.3,25.2 12.3,1.7 23.6,-7 25.2,-19.3 4.9,-37.5 9.6,-73.6 13.9,-107.9 1.6,-12.3 -7.1,-23.5 -19.4,-25.1 -1,-0.1 -1.9,-0.2 -2.9,-0.2 z m 26,-216.1 c -11.3,0 -21,8.4 -22.3,19.9 -3.7,32.8 -7.9,68.9 -12.6,108 -1.5,12.3 7.3,23.5 19.6,25 12.2,1.4 23.5,-7.3 24.9,-19.6 4.8,-39.2 9,-75.4 12.7,-108.3 1.4,-12.3 -7.4,-23.4 -19.7,-24.8 z m 23,-217.7 c -11.4,0 -21.2,8.7 -22.3,20.4 0,0.4 -3.6,39.6 -11,109 -1.3,12.3 7.6,23.3 19.9,24.7 12.3,1.3 23.4,-7.6 24.7,-20 7.4,-69.7 11.1,-109.2 11.1,-109.6 1.2,-12.4 -7.9,-23.3 -20.3,-24.4 l -2.1,-0.1"
         style="fill:#f78e48;fill-opacity:1;fill-rule:nonzero;stroke:none"
         id="path202" /><path
         d="m 27899.9,1627.6 -25557.25,8.8 c -17.13,0 -31.14,14 -31.14,31.1 l 0.01,16 c 0,17.1 14.03,31.1 31.16,31.1 l 25557.22,-8.8 c 17.1,0 31.1,-14 31.1,-31.2 v -15.9 c 0,-17.1 -14,-31.2 -31.1,-31.1"
         style="fill:#2e3552;fill-opacity:1;fill-rule:nonzero;stroke:none"
         id="path204" /><path
         d="m 11164.8,11107.1 c 0,0 305.8,21.2 372.4,-218.7 0,0 235.5,479.8 733,440.3 497.4,-39.6 589.3,-332.1 589.3,-332.1 0,0 285,97.8 521.7,-32.7 236.6,-130.5 221.4,-369.8 221.4,-369.8 0,0 217,304.6 653.2,195.8 0,0 -87,440.4 437.5,541.1 524.5,100.7 747.3,-73.4 747.3,-73.4 0,0 594,382.6 1119.9,-97 0,0 385.3,74.9 573.7,-162.5 0,0 386,466.5 1112.2,384.6 V 9076.5 h -7084.6 l 3,2030.6"
         style="fill:#d7e2ff;fill-opacity:1;fill-rule:nonzero;stroke:none"
         id="path206" /><path
         d="m 11164.7,9956.3 c 0,0 514.3,130.1 973.4,-172.9 0,0 111.9,133.3 403.3,100.3 291.5,-33 371.7,-302.2 371.7,-302.2 0,0 1019.7,336.7 1524.6,-505 h -3275.9 l 2.9,879.8"
         style="fill:#ebf3fa;fill-opacity:1;fill-rule:nonzero;stroke:none"
         id="path208" /><path
         d="m 15065.2,9076.5 c 0,0 26,516.1 564.9,639.6 0,0 -279.1,123.4 -138.4,430.1 140.7,306.7 482.4,329.2 482.4,329.2 0,0 35.7,554.9 1004.6,459.1 272,-26.9 559.9,-189.8 605,-474.1 0,0 105,172.9 322.7,161.3 0,0 26.9,315.5 339.9,312.8 v -1858 h -3181.1"
         style="fill:#ebf3fa;fill-opacity:1;fill-rule:nonzero;stroke:none"
         id="path210" /><path
         d="m 17791.5,13514.5 -406.6,-1408.9 -12.9,1.6 -1389.4,168.7 c 0,0 643.5,133.9 710.4,211.1 63,72.8 731.2,936.1 926.7,1028.4 12,5.7 22.2,8.4 30.4,7.9 141.4,-8.8 141.4,-8.8 141.4,-8.8"
         style="fill:#739af0;fill-opacity:1;fill-rule:nonzero;stroke:none"
         id="path212" /><path
         d="m 17372,12107.2 -1389.4,168.7 c 0,0 643.5,133.9 710.4,211.1 63,72.8 731.2,936.1 926.7,1028.4 -173.1,-251.3 -574.2,-855.2 -557.2,-1030.8 16.3,-167.2 211.9,-314 309.5,-377.4"
         style="fill:#2b478b;fill-opacity:1;fill-rule:nonzero;stroke:none"
         id="path214" /><path
         d="m 17522.1,11682.9 c -47.4,-16.2 -189.1,-60.8 -383.6,-117.4 -559.2,-162.6 -1553.8,-423.8 -1992.7,-391.5 -393.8,28.9 -2476.1,187.9 -3916.4,314.2 348.5,612 783,950.2 1180.7,1135.6 1678.2,-137.5 3872.8,-323.3 4152,-377.3 459.3,-88.8 1068.7,-161 1068.7,-161 0,0 4.1,-18.6 8.1,-48.1 12.9,-96.1 23.8,-306.1 -116.8,-354.5"
         style="fill:#e58638;fill-opacity:1;fill-rule:nonzero;stroke:none"
         id="path216" /><path
         d="m 17646,11935.4 c -0.1,-3.4 -0.1,-7 -0.2,-10.6 -1.2,-76.4 -16.7,-161.6 -70.8,-210.7 -1.8,-1.7 -3.7,-3.3 -5.6,-4.9 -3.8,-3.1 -7.9,-6.2 -12,-8.9 h -0.1 v -0.1 c -2,-1.3 -4.3,-2.6 -6.5,-4 -2.1,-1.2 -4.3,-2.5 -6.6,-3.8 h -0.1 c -2.3,-1.2 -4.6,-2.3 -7,-3.4 -2.4,-1.1 -4.9,-2.2 -7.4,-3.2 -2.4,-1 -5,-1.9 -7.6,-2.9 l -2.3,-0.7 v -0.1 l -2.4,-0.8 -2.5,-0.8 v -0.1 c -0.9,-0.2 -1.8,-0.5 -2.7,-0.8 v -0.1 c -1,-0.2 -2,-0.5 -2.9,-0.9 -1,-0.3 -2,-0.6 -2.9,-0.9 h -0.1 v -0.1 c -1,-0.3 -2,-0.6 -3,-1 -1.1,-0.3 -2.1,-0.7 -3.3,-1 h -0.1 c -1.1,-0.4 -2.1,-0.7 -3.3,-1.1 -1.1,-0.4 -2.3,-0.7 -3.4,-1.1 -2.4,-0.8 -4.9,-1.7 -7.4,-2.5 h -0.1 c -1.2,-0.4 -2.5,-0.8 -3.7,-1.2 h -0.1 v -0.1 c -1.3,-0.4 -2.7,-0.8 -4,-1.2 -1,-0.3 -1.9,-0.6 -2.9,-0.9 -10.5,-3.4 -22.2,-7.2 -35,-11.2 -2.4,-0.7 -4.8,-1.4 -7.3,-2.2 -33.6,-10.6 -74.4,-23.2 -121.3,-37.4 -4.9,-1.4 -9.7,-2.9 -14.8,-4.4 -8.1,-2.5 -16.5,-5.1 -25.1,-7.6 -1.8,-0.5 -3.6,-1.1 -5.6,-1.6 -2.5,-0.8 -5.2,-1.6 -7.8,-2.4 -2.6,-0.8 -5.3,-1.5 -8,-2.3 -2.7,-0.8 -5.4,-1.7 -8.1,-2.5 -2.6,-0.8 -5.4,-1.6 -8.1,-2.4 -2.8,-0.8 -5.5,-1.6 -8.2,-2.4 -2.9,-0.8 -5.7,-1.7 -8.4,-2.5 -2.8,-0.8 -5.7,-1.7 -8.4,-2.5 l -0.1,-0.1 c -2.8,-0.8 -5.6,-1.6 -8.5,-2.4 -2,-0.6 -4,-1.2 -6.1,-1.9 l -2.5,-0.7 c -2.9,-0.8 -5.7,-1.6 -8.6,-2.4 -14.6,-4.4 -29.4,-8.7 -44.6,-13 -8.7,-2.7 -17.6,-5.2 -26.6,-7.8 -7.7,-2.2 -15.4,-4.5 -23.2,-6.7 -5.9,-1.7 -11.7,-3.4 -17.7,-5.1 -23.1,-6.6 -46.8,-13.4 -71,-20.2 -5,-1.4 -9.8,-2.7 -14.7,-4.2 -8.5,-2.4 -16.9,-4.7 -25.5,-7.1 -7.7,-2.2 -15.5,-4.4 -23.3,-6.6 -8.7,-2.4 -17.4,-4.8 -26.2,-7.3 -290.6,-80.6 -642.9,-171.1 -969.6,-236.8 -11.4,-2.3 -22.9,-4.5 -34.3,-6.8 -5.7,-1.2 -11.3,-2.3 -17,-3.4 -11.4,-2.2 -22.7,-4.3 -34,-6.4 -33.8,-6.5 -67.3,-12.7 -100.3,-18.4 -11,-1.9 -21.9,-3.8 -32.8,-5.7 -5.5,-0.9 -10.9,-1.8 -16.3,-2.7 -10.8,-1.8 -21.6,-3.5 -32.3,-5.3 -10.7,-1.8 -21.4,-3.4 -32,-5 -10.5,-1.6 -21,-3.2 -31.5,-4.7 -10.4,-1.6 -20.9,-3.2 -31.1,-4.6 -10.4,-1.4 -20.6,-2.8 -30.7,-4.2 -10.2,-1.3 -20.3,-2.6 -30.3,-3.9 -4.9,-0.7 -9.9,-1.3 -14.9,-1.9 -19.8,-2.4 -39.4,-4.6 -58.4,-6.6 -4.9,-0.5 -9.6,-1 -14.4,-1.4 -9.5,-0.9 -18.8,-1.9 -28.1,-2.8 -18.6,-1.6 -36.8,-3.1 -54.6,-4.2 -13.3,-1 -26.4,-1.7 -39.2,-2.3 -8.6,-0.5 -17.1,-0.8 -25.5,-1.1 -12.5,-0.5 -24.8,-0.8 -36.7,-1 -16.1,-0.2 -31.6,-0.2 -46.5,0.2 -7.6,0 -15,0.4 -22.3,0.7 -3.6,0.1 -7.1,0.2 -10.8,0.5 -7.1,0.3 -14.1,0.7 -21,1.2 -2.4,0.2 -4.9,0.4 -7.6,0.6 l -1.8,0.1 c -1.7,0.2 -3.4,0.3 -5.1,0.4 -6.4,0.5 -13.2,0.9 -20.5,1.5 -1.9,0.1 -3.8,0.3 -5.8,0.4 -2.5,0.2 -4.9,0.4 -7.4,0.6 -3.7,0.2 -7.7,0.5 -11.6,0.8 -2.1,0.2 -4.3,0.3 -6.4,0.5 -2.1,0.1 -4.3,0.3 -6.4,0.5 -4.5,0.3 -8.9,0.6 -13.5,1 -4.5,0.3 -9.1,0.7 -13.9,1 -2.4,0.2 -4.8,0.4 -7.3,0.5 -5.9,0.5 -12,1 -18.2,1.5 -3,0.2 -5.9,0.4 -8.8,0.7 -6.2,0.4 -12.5,0.9 -19,1.4 -2.7,0.2 -5.4,0.3 -8.3,0.6 -7.9,0.6 -16,1.2 -24.4,1.8 -23.1,1.7 -47.7,3.6 -73.8,5.6 -3.1,0.3 -6.4,0.5 -9.7,0.8 -6.4,0.4 -13,0.9 -19.8,1.4 -9.9,0.8 -20.1,1.5 -30.5,2.3 -4.2,0.4 -8.4,0.7 -12.6,1 -9.8,0.7 -19.8,1.5 -29.8,2.2 -3.6,0.3 -7.3,0.6 -11,0.8 -6.8,0.6 -13.8,1.2 -20.8,1.7 l -23.1,1.8 c -4.1,0.3 -8.1,0.6 -12.3,0.9 -3.8,0.3 -7.7,0.6 -11.5,0.9 -6.1,0.4 -12.3,0.9 -18.6,1.4 -35.8,2.7 -73,5.6 -111.8,8.5 -5.7,0.5 -11.2,0.9 -17,1.3 -8.6,0.7 -17.2,1.4 -26,2 -20.2,1.6 -40.9,3.1 -61.8,4.8 -1.6,0.1 -3.2,0.3 -4.8,0.4 -18.2,1.4 -36.6,2.8 -55.2,4.2 -0.9,0.1 -1.8,0.2 -2.6,0.2 -110.9,8.6 -230.4,17.9 -356.7,27.7 -6.4,0.5 -12.8,1 -19.2,1.5 -25.5,1.9 -51.4,3.9 -77.4,5.9 -16.4,1.4 -32.8,2.7 -49.3,4 -0.9,0 -1.8,0.1 -2.7,0.2 -18.8,1.4 -37.8,2.9 -56.9,4.4 -2.3,0.1 -4.6,0.4 -7,0.5 -33.4,2.6 -67.4,5.4 -101.6,8 -8.8,0.7 -17.5,1.4 -26.3,2.1 -2.8,0.2 -5.4,0.4 -8.1,0.6 -29.9,2.3 -60.2,4.8 -90.5,7.2 -13.4,1 -26.6,2 -39.9,3.1 -8.9,0.7 -17.7,1.4 -26.6,2 -17.9,1.5 -35.9,3 -54,4.4 -27,2.1 -54.2,4.2 -81.4,6.4 -2.5,0.1 -4.9,0.4 -7.3,0.5 -11.3,1.1 -22.5,1.8 -33.7,2.8 l -2.5,0.2 c -33.5,2.6 -67.1,5.3 -101,7.9 -0.9,0.1 -1.8,0.2 -2.8,0.4 -3.6,0.3 -7,0.5 -10.5,0.8 -19.9,1.5 -39.9,3.1 -59.9,4.7 -15,1.2 -30.2,2.3 -45.3,3.6 -9.4,0.7 -18.8,1.4 -28.2,2.3 -39.2,3 -78.6,6.2 -118.2,9.3 l -1,0.1 c -65.5,5.4 -131.4,10.6 -197.7,16 -9,0.7 -18,1.4 -27.1,2.2 l -1.9,0.1 c -29.1,2.3 -58.1,4.8 -87.2,7.1 -9,0.7 -17.9,1.4 -26.9,2.2 -25,2 -50.1,4 -75.1,6.1 -50.9,4.2 -101.9,8.3 -152.7,12.5 -32.2,2.6 -64.4,5.2 -96.5,7.9 -20.2,1.7 -40.4,3.4 -60.5,5 -48.2,3.9 -96.1,7.9 -144,11.8 -2.3,0.2 -4.5,0.4 -6.8,0.6 -30,2.5 -60.1,5 -90,7.5 -42.6,3.5 -85.2,7.1 -127.5,10.7 -16.9,1.4 -33.9,2.8 -50.7,4.2 -5.2,0.4 -10.3,0.9 -15.5,1.3 -34.2,2.9 -68.1,5.8 -101.9,8.6 -5.1,0.4 -10,0.8 -15,1.2 -23.2,2 -46.3,4 -69.3,6 -97.6,8.3 -193.5,16.4 -287.2,24.6 -11.3,0.9 -22.5,1.9 -33.8,2.9 -6.9,0.6 -13.8,1.2 -20.5,1.8 -9.2,0.9 -18.3,1.6 -27.5,2.4 -18.2,1.6 -36.3,3.1 -54.3,4.7 -349.2,30.6 -660.7,59.4 -901.2,83.8 -24.5,2.4 -48.3,4.9 -71.2,7.3 -57.2,5.9 -109.5,11.6 -156.5,17 -133.24,15.1 -224,27.7 -260.04,36.8 -194.53,49 -518.97,178.1 -717.93,312.1 -119.93,80.9 -194.12,163.5 -166.57,231.7 35.03,86.7 111.15,139.1 189.28,177.6 67.73,33.5 136.98,56.5 182.31,82.7 2.63,1.6 5.15,3.1 7.67,4.6 8.38,5.2 15.75,10.7 22.01,16.3 1.01,1 2.02,1.8 3.23,3.1 17.67,16 46.74,42.9 88.74,74.3 27.96,21 61.57,44.1 101.44,67.5 l 0.61,0.4 c 174.04,101.9 465.05,209.6 908.45,177.6 0,0 867.7,-68.5 1950.3,-157.2 h 0.1 c 107.9,-8.8 217.9,-17.9 329.4,-27.1 h 0.1 c 37.1,-3 74.5,-6 111.9,-9.2 56.3,-4.6 112.8,-9.3 169.5,-14 h 0.1 c 94.6,-7.9 189.8,-15.7 285.4,-23.7 19.1,-1.6 38.3,-3.3 57.4,-4.8 38.3,-3.2 76.5,-6.4 114.8,-9.5 76.7,-6.5 153.3,-13 230,-19.4 38.1,-3.3 76.3,-6.5 114.4,-9.6 136.3,-11.5 271.8,-23 405.4,-34.5 h 0.7 c 385.9,-33.2 756,-65.5 1084.3,-95.2 h 0.1 c 17.4,-1.5 34.7,-3.2 51.7,-4.7 192.7,-17.6 370.1,-34.1 526.5,-49.2 74.8,-7.4 144.8,-14.4 209.4,-20.9 234,-23.9 397.2,-43 460.9,-55.4 165.5,-32 350.4,-61.8 519.2,-86.9 13.9,-2.1 27.8,-4.1 41.4,-6 l 2.1,-0.3 c 20.9,-3.2 41.5,-6.1 61.8,-9 l 1.8,-0.3 c 23.4,-3.4 46.4,-6.6 68.7,-9.7 32.6,-4.6 63.9,-8.8 93.4,-12.8 12.9,-1.7 25.3,-3.5 37.5,-5.1 145.8,-19.4 242.8,-30.9 242.8,-30.9 0,0 0.6,-2.6 1.5,-7.4 l 0.3,-1.3 c 0.2,-1.3 0.5,-2.7 0.8,-4.3 0.5,-3.1 1.2,-6.8 1.8,-10.9 0.9,-5.4 1.9,-11.7 2.8,-18.8 l 0.1,-0.1 c 0.2,-1.7 0.5,-3.5 0.7,-5.3 0.8,-5.9 1.7,-12.1 2.4,-18.9 0.5,-4.6 1,-9.6 1.5,-14.5 0.2,-2.8 0.5,-5.6 0.7,-8.4 0.3,-3.2 0.5,-6.3 0.7,-9.4 0.3,-4.5 0.6,-9.2 0.9,-13.9 0.1,-1.9 0.2,-3.9 0.2,-5.8 0.2,-3.3 0.3,-6.8 0.4,-10.1 0.1,-1.8 0.1,-3.5 0.1,-5.2 0.1,-3.5 0.2,-7 0.2,-10.4 0,-1.7 0,-3.6 0.1,-5.4"
         style="fill:#d7e2ff;fill-opacity:1;fill-rule:nonzero;stroke:none"
         id="path218" /><path
         d="m 17646,11935.4 c -0.1,-3.4 -0.1,-7 -0.2,-10.6 -1.2,-76.4 -16.7,-161.6 -70.8,-210.7 -1.8,-1.7 -3.7,-3.3 -5.6,-4.9 -3.8,-3.1 -7.9,-6.2 -12,-8.9 h -0.1 v -0.1 c -2,-1.3 -4.3,-2.6 -6.5,-4 -2.1,-1.2 -4.3,-2.5 -6.6,-3.8 h -0.1 c -2.3,-1.2 -4.6,-2.3 -7,-3.4 -2.4,-1.1 -4.9,-2.2 -7.4,-3.2 -2.4,-1 -5,-1.9 -7.6,-2.9 l -2.3,-0.7 v -0.1 l -2.4,-0.8 -2.5,-0.8 v -0.1 c -0.9,-0.2 -1.8,-0.5 -2.7,-0.8 v -0.1 c -1,-0.2 -2,-0.5 -2.9,-0.9 -1,-0.3 -2,-0.6 -2.9,-0.9 h -0.1 v -0.1 c -1,-0.3 -2,-0.6 -3,-1 -1.1,-0.3 -2.1,-0.7 -3.3,-1 h -0.1 c -1.1,-0.4 -2.1,-0.7 -3.3,-1.1 -1.1,-0.4 -2.3,-0.7 -3.4,-1.1 -2.4,-0.8 -4.9,-1.7 -7.4,-2.5 h -0.1 c -1.2,-0.4 -2.5,-0.8 -3.7,-1.2 h -0.1 v -0.1 c -1.3,-0.4 -2.7,-0.8 -4,-1.2 -1,-0.3 -1.9,-0.6 -2.9,-0.9 -10.5,-3.4 -22.2,-7.2 -35,-11.2 -2.4,-0.7 -4.8,-1.4 -7.3,-2.2 -33.6,-10.6 -74.4,-23.2 -121.3,-37.4 -4.9,-1.4 -9.7,-2.9 -14.8,-4.4 -8.1,-2.5 -16.5,-5.1 -25.1,-7.6 -1.8,-0.5 -3.6,-1.1 -5.6,-1.6 -2.5,-0.8 -5.2,-1.6 -7.8,-2.4 -2.6,-0.8 -5.3,-1.5 -8,-2.3 -2.7,-0.8 -5.4,-1.7 -8.1,-2.5 -2.6,-0.8 -5.4,-1.6 -8.1,-2.4 -2.8,-0.8 -5.5,-1.6 -8.2,-2.4 -2.9,-0.8 -5.7,-1.7 -8.4,-2.5 -2.8,-0.8 -5.7,-1.7 -8.4,-2.5 l -0.1,-0.1 c -2.8,-0.8 -5.6,-1.6 -8.5,-2.4 -2,-0.6 -4,-1.2 -6.1,-1.9 l -2.5,-0.7 c -2.9,-0.8 -5.7,-1.6 -8.6,-2.4 -14.6,-4.4 -29.4,-8.7 -44.6,-13 -8.7,-2.7 -17.6,-5.2 -26.6,-7.8 -7.7,-2.2 -15.4,-4.5 -23.2,-6.7 -5.9,-1.7 -11.7,-3.4 -17.7,-5.1 -23.1,-6.6 -46.8,-13.4 -71,-20.2 -5,-1.4 -9.8,-2.7 -14.7,-4.2 -8.5,-2.4 -16.9,-4.7 -25.5,-7.1 -7.7,-2.2 -15.5,-4.4 -23.3,-6.6 -8.7,-2.4 -17.4,-4.8 -26.2,-7.3 -290.6,-80.6 -642.9,-171.1 -969.6,-236.8 -11.4,-2.3 -22.9,-4.5 -34.3,-6.8 -5.7,-1.2 -11.3,-2.3 -17,-3.4 -11.4,-2.2 -22.7,-4.3 -34,-6.4 -33.8,-6.5 -67.3,-12.7 -100.3,-18.4 -11,-1.9 -21.9,-3.8 -32.8,-5.7 -5.5,-0.9 -10.9,-1.8 -16.3,-2.7 -10.8,-1.8 -21.6,-3.5 -32.3,-5.3 -10.7,-1.8 -21.4,-3.4 -32,-5 -10.5,-1.6 -21,-3.2 -31.5,-4.7 -10.4,-1.6 -20.9,-3.2 -31.1,-4.6 -10.4,-1.4 -20.6,-2.8 -30.7,-4.2 -10.2,-1.3 -20.3,-2.6 -30.3,-3.9 -4.9,-0.7 -9.9,-1.3 -14.9,-1.9 -19.8,-2.4 -39.4,-4.6 -58.4,-6.6 -4.9,-0.5 -9.6,-1 -14.4,-1.4 -9.5,-0.9 -18.8,-1.9 -28.1,-2.8 -18.6,-1.6 -36.8,-3.1 -54.6,-4.2 -13.3,-1 -26.4,-1.7 -39.2,-2.3 -8.6,-0.5 -17.1,-0.8 -25.5,-1.1 -12.5,-0.5 -24.8,-0.8 -36.7,-1 -16.1,-0.2 -31.6,-0.2 -46.5,0.2 -7.6,0 -15,0.4 -22.3,0.7 -3.6,0.1 -7.1,0.2 -10.8,0.5 -7.1,0.3 -14.1,0.7 -21,1.2 -2.4,0.2 -4.9,0.4 -7.6,0.6 l -1.8,0.1 c -1.7,0.2 -3.4,0.3 -5.1,0.4 -6.4,0.5 -13.2,0.9 -20.5,1.5 -1.9,0.1 -3.8,0.3 -5.8,0.4 -2.5,0.2 -4.9,0.4 -7.4,0.6 -3.7,0.2 -7.7,0.5 -11.6,0.8 -2.1,0.2 -4.3,0.3 -6.4,0.5 -2.1,0.1 -4.3,0.3 -6.4,0.5 -4.5,0.3 -8.9,0.6 -13.5,1 -4.5,0.3 -9.1,0.7 -13.9,1 -2.4,0.2 -4.8,0.4 -7.3,0.5 -5.9,0.5 -12,1 -18.2,1.5 -3,0.2 -5.9,0.4 -8.8,0.7 -6.2,0.4 -12.5,0.9 -19,1.4 -2.7,0.2 -5.4,0.3 -8.3,0.6 -7.9,0.6 -16,1.2 -24.4,1.8 -23.1,1.7 -47.7,3.6 -73.8,5.6 -3.1,0.3 -6.4,0.5 -9.7,0.8 -6.4,0.4 -13,0.9 -19.8,1.4 -9.9,0.8 -20.1,1.5 -30.5,2.3 -4.2,0.4 -8.4,0.7 -12.6,1 -9.8,0.7 -19.8,1.5 -29.8,2.2 -3.6,0.3 -7.3,0.6 -11,0.8 -6.8,0.6 -13.8,1.2 -20.8,1.7 l -23.1,1.8 c -4.1,0.3 -8.1,0.6 -12.3,0.9 -3.8,0.3 -7.7,0.6 -11.5,0.9 -6.1,0.4 -12.3,0.9 -18.6,1.4 -35.8,2.7 -73,5.6 -111.8,8.5 -5.7,0.5 -11.2,0.9 -17,1.3 -8.6,0.7 -17.2,1.4 -26,2 -20.2,1.6 -40.9,3.1 -61.8,4.8 -1.6,0.1 -3.2,0.3 -4.8,0.4 -18.2,1.4 -36.6,2.8 -55.2,4.2 -0.9,0.1 -1.8,0.2 -2.6,0.2 -110.9,8.6 -230.4,17.9 -356.7,27.7 -6.4,0.5 -12.8,1 -19.2,1.5 -25.5,1.9 -51.4,3.9 -77.4,5.9 -16.4,1.4 -32.8,2.7 -49.3,4 -0.9,0 -1.8,0.1 -2.7,0.2 -18.8,1.4 -37.8,2.9 -56.9,4.4 -2.3,0.1 -4.6,0.4 -7,0.5 -33.4,2.6 -67.4,5.4 -101.6,8 -8.8,0.7 -17.5,1.4 -26.3,2.1 -2.8,0.2 -5.4,0.4 -8.1,0.6 -29.9,2.3 -60.2,4.8 -90.5,7.2 -13.4,1 -26.6,2 -39.9,3.1 -8.9,0.7 -17.7,1.4 -26.6,2 -17.9,1.5 -35.9,3 -54,4.4 -27,2.1 -54.2,4.2 -81.4,6.4 -2.5,0.1 -4.9,0.4 -7.3,0.5 -11.3,1.1 -22.5,1.8 -33.7,2.8 l -2.5,0.2 c -33.5,2.6 -67.1,5.3 -101,7.9 -0.9,0.1 -1.8,0.2 -2.8,0.4 -3.6,0.3 -7,0.5 -10.5,0.8 759.9,423.6 976.9,1151.2 976.9,1151.2 h 0.7 c 385.9,-33.2 756,-65.5 1084.3,-95.2 h 0.1 c 17.4,-1.5 34.7,-3.2 51.7,-4.7 192.7,-17.6 370.1,-34.1 526.5,-49.2 74.8,-7.4 144.8,-14.4 209.4,-20.9 234,-23.9 397.2,-43 460.9,-55.4 165.5,-32 350.4,-61.8 519.2,-86.9 13.9,-2.1 27.8,-4.1 41.4,-6 l 2.1,-0.3 c 20.9,-3.2 41.5,-6.1 61.8,-9 l 1.8,-0.3 c 23.4,-3.4 46.4,-6.6 68.7,-9.7 32.6,-4.6 63.9,-8.8 93.4,-12.8 12.9,-1.7 25.3,-3.5 37.5,-5.1 145.8,-19.4 242.8,-30.9 242.8,-30.9 0,0 0.6,-2.6 1.5,-7.4 l 0.3,-1.3 c 0.2,-1.3 0.5,-2.7 0.8,-4.3 0.5,-3.1 1.2,-6.8 1.8,-10.9 0.9,-5.4 1.9,-11.7 2.8,-18.8 l 0.1,-0.1 c 0.2,-1.7 0.5,-3.5 0.7,-5.3 0.8,-5.9 1.7,-12.1 2.4,-18.9 0.5,-4.6 1,-9.6 1.5,-14.5 0.2,-2.8 0.5,-5.6 0.7,-8.4 0.3,-3.2 0.5,-6.3 0.7,-9.4 0.3,-4.5 0.6,-9.2 0.9,-13.9 0.1,-1.9 0.2,-3.9 0.2,-5.8 0.2,-3.3 0.3,-6.8 0.4,-10.1 0.1,-1.8 0.1,-3.5 0.1,-5.2 0.1,-3.5 0.2,-7 0.2,-10.4 0,-1.7 0,-3.6 0.1,-5.4"
         style="fill:#f99746;fill-opacity:1;fill-rule:nonzero;stroke:none"
         id="path220" /><path
         d="m 17138.5,11565.5 v 0 c 16.6,4.8 32.8,9.6 48.7,14.2 0.2,0.1 0.4,0.1 0.6,0.2 -16,-4.7 -32.5,-9.5 -49.3,-14.4"
         style="fill:#d2a393;fill-opacity:1;fill-rule:nonzero;stroke:none"
         id="path222" /><path
         d="m 17138.5,11565.5 c 0,0 0,0 0,0.1 15.2,4.3 30,8.6 44.6,13 1.3,0.3 2.7,0.7 4.1,1.1 -15.9,-4.6 -32.1,-9.4 -48.7,-14.2"
         style="fill:#e37e2f;fill-opacity:1;fill-rule:nonzero;stroke:none"
         id="path224" /><path
         d="m 17196.4,11582.4 c 0.2,0.1 0.3,0.1 0.5,0.2 2.2,0.6 4.4,1.3 6.7,1.9 0.3,0.1 0.7,0.2 1,0.3 -2.7,-0.8 -5.5,-1.6 -8.2,-2.4"
         style="fill:#d2a393;fill-opacity:1;fill-rule:nonzero;stroke:none"
         id="path226" /><path
         d="m 17196.9,11582.6 c 1.1,0.3 2.3,0.7 3.4,1 1.1,0.3 2.2,0.6 3.3,0.9 -2.3,-0.6 -4.5,-1.3 -6.7,-1.9"
         style="fill:#e37e2f;fill-opacity:1;fill-rule:nonzero;stroke:none"
         id="path228" /><path
         d="m 17208.9,11586.1 v 0 c 1.7,0.5 3.5,1.1 5.2,1.6 0.5,0.1 1,0.2 1.4,0.4 -2.2,-0.7 -4.4,-1.3 -6.6,-2"
         style="fill:#d2a393;fill-opacity:1;fill-rule:nonzero;stroke:none"
         id="path230" /><path
         d="m 17208.9,11586.1 v 0 c 1.7,0.5 3.5,1.1 5.2,1.6 -1.7,-0.5 -3.5,-1.1 -5.2,-1.6"
         style="fill:#e37e2f;fill-opacity:1;fill-rule:nonzero;stroke:none"
         id="path232" /><path
         d="m 17220,11589.4 c 0.3,0.1 0.7,0.2 1,0.3 5.2,1.5 10.4,3.1 15.5,4.6 1.6,0.5 3.3,1 4.9,1.4 3.7,1.2 7.5,2.3 11.2,3.4 0.4,0.1 0.8,0.2 1.2,0.3 -11,-3.3 -22.3,-6.6 -33.8,-10"
         style="fill:#d2a393;fill-opacity:1;fill-rule:nonzero;stroke:none"
         id="path234" /><path
         d="m 17221,11589.7 c 1.6,0.5 3.1,1 4.7,1.4 2.7,0.8 5.4,1.6 8.2,2.4 0.8,0.3 1.7,0.5 2.6,0.8 -5.1,-1.5 -10.3,-3.1 -15.5,-4.6 m 20.4,6 c 0.2,0.1 0.4,0.2 0.6,0.2 2.7,0.8 5.4,1.7 8.1,2.5 0.8,0.2 1.7,0.4 2.5,0.7 -3.7,-1.1 -7.5,-2.2 -11.2,-3.4"
         style="fill:#e37e2f;fill-opacity:1;fill-rule:nonzero;stroke:none"
         id="path236" /><path
         d="m 17260.5,11601.4 c 0.9,0.3 1.8,0.6 2.7,0.9 1.6,0.4 3.2,0.9 4.8,1.4 0.3,0.1 0.6,0.2 0.8,0.2 0.6,0.2 1.1,0.4 1.7,0.5 0.3,0.1 0.7,0.2 1,0.3 0.2,0.1 0.3,0.1 0.5,0.2 -3.8,-1.2 -7.6,-2.3 -11.5,-3.5"
         style="fill:#d2a393;fill-opacity:1;fill-rule:nonzero;stroke:none"
         id="path238" /><path
         d="m 17263.2,11602.3 c 1,0.2 1.9,0.5 2.7,0.8 0.7,0.2 1.4,0.4 2.1,0.6 -1.6,-0.5 -3.2,-1 -4.8,-1.4 m 5.6,1.6 c 0.6,0.2 1.1,0.4 1.7,0.5 -0.6,-0.1 -1.1,-0.3 -1.7,-0.5"
         style="fill:#e37e2f;fill-opacity:1;fill-rule:nonzero;stroke:none"
         id="path240" /><path
         d="m 17292.3,11611 c 1.1,0.3 2.2,0.6 3.2,0.9 8.4,2.6 16.6,5 24.6,7.5 10.8,3.2 21.2,6.4 31.3,9.5 -18.5,-5.7 -38.3,-11.7 -59.1,-17.9"
         style="fill:#d2a393;fill-opacity:1;fill-rule:nonzero;stroke:none"
         id="path242" /><path
         d="m 17295.5,11611.9 c 0.4,0.2 0.8,0.3 1.1,0.4 5.1,1.5 9.9,3 14.8,4.4 2.9,0.9 5.8,1.8 8.7,2.7 -8,-2.5 -16.2,-4.9 -24.6,-7.5"
         style="fill:#e37e2f;fill-opacity:1;fill-rule:nonzero;stroke:none"
         id="path244" /><path
         d="m 17370,11634.6 c 13,4 25.3,7.8 37,11.4 11.1,3.5 21.6,6.8 31.4,9.8 0.4,0.1 0.8,0.3 1.1,0.4 -20.4,-6.5 -43.7,-13.7 -69.5,-21.6"
         style="fill:#d2a393;fill-opacity:1;fill-rule:nonzero;stroke:none"
         id="path246" /><path
         d="m 17407,11646 c 9,2.8 17.5,5.5 25.7,8.1 2,0.6 3.9,1.2 5.7,1.7 -9.8,-3 -20.3,-6.3 -31.4,-9.8"
         style="fill:#e37e2f;fill-opacity:1;fill-rule:nonzero;stroke:none"
         id="path248" /><path
         d="m 17457.8,11662 c 2.2,0.7 4.3,1.3 6.4,2 5.3,1.7 10.3,3.3 15,4.8 0.2,0.1 0.4,0.1 0.6,0.2 -6.8,-2.2 -14.1,-4.6 -22,-7"
         style="fill:#d2a393;fill-opacity:1;fill-rule:nonzero;stroke:none"
         id="path250" /><path
         d="m 17464.2,11664 c 3.8,1.2 7.3,2.4 10.8,3.5 1,0.3 1.9,0.6 2.9,0.9 0.5,0.2 0.9,0.3 1.3,0.4 -4.7,-1.5 -9.7,-3.1 -15,-4.8"
         style="fill:#e37e2f;fill-opacity:1;fill-rule:nonzero;stroke:none"
         id="path252" /><path
         d="m 17481.9,11669.7 v 0 c 1.5,0.5 3,0.9 4.5,1.4 0.7,0.3 1.4,0.5 2.1,0.7 1.6,0.5 3,1 4.5,1.5 -3.5,-1.2 -7.2,-2.4 -11.1,-3.6"
         style="fill:#d2a393;fill-opacity:1;fill-rule:nonzero;stroke:none"
         id="path254" /><path
         d="m 17481.9,11669.7 v 0 h 0.1 c 1.2,0.4 2.5,0.8 3.7,1.2 h 0.1 c 0.2,0.1 0.4,0.2 0.6,0.2 -1.5,-0.5 -3,-0.9 -4.5,-1.4 m 6.6,2.1 c 1.6,0.5 3.1,1 4.7,1.6 1.1,0.4 2.3,0.7 3.4,1.1 1.2,0.4 2.2,0.7 3.3,1.1 h 0.1 c 0.1,0 0.1,0 0.1,0 -2.3,-0.7 -4.6,-1.5 -7.1,-2.3 -1.5,-0.5 -2.9,-1 -4.5,-1.5 m 17.8,5.9 v 0 h 0.1 c 0.5,0.2 1,0.3 1.5,0.5 -0.5,-0.2 -1.1,-0.4 -1.6,-0.5 m 3.6,1.1 c 0.4,0.2 0.8,0.3 1.3,0.5 -0.5,-0.2 -0.9,-0.3 -1.3,-0.5 m 2.3,0.8 v 0 c 0.5,0.2 1,0.4 1.5,0.5 -0.5,-0.2 -1,-0.3 -1.5,-0.5 m 2.7,0.9 v 0 l 0.9,0.3 c -0.3,-0.1 -0.6,-0.2 -0.9,-0.3 m 4.9,1.7 v 0 l 1.4,0.5 c -0.4,-0.2 -0.9,-0.3 -1.4,-0.5 m 13.3,5 c 1.3,0.6 2.7,1.2 4,1.8 2.4,1.1 4.7,2.2 7,3.4 v 0 c -3.6,-1.8 -7.2,-3.6 -11,-5.2 m 18.3,9.3 c 1.1,0.8 2.2,1.4 3.3,2.1 -1.1,-0.7 -2.2,-1.4 -3.3,-2.1 m 5.9,3.8 v 0 h 0.1 c -0.1,0 -0.1,0 -0.1,0 m 17.7,13.8 c 0,0 0,0 0,0 0.4,0.4 0.8,0.7 1.1,1.1 -0.3,-0.4 -0.7,-0.8 -1.1,-1.1"
         style="fill:#e37e2f;fill-opacity:1;fill-rule:nonzero;stroke:none"
         id="path256" /><path
         d="m 17634.3,11824.6 c 1.3,5.6 2.5,11.2 3.6,16.8 0,0.1 0,0.1 0,0.2 0,0.1 0.1,0.3 0.1,0.5 5.7,30.1 7.8,61.4 8,91 0,0.2 0,0.3 0,0.5 -0.1,-35.6 -3.2,-73.4 -11.7,-109"
         style="fill:#d2a393;fill-opacity:1;fill-rule:nonzero;stroke:none"
         id="path258" /><path
         d="m 17637.9,11841.4 c 0,0.1 0,0.1 0,0.2 0,-0.1 0,-0.1 0,-0.2 m 0.1,0.7 c 5.1,27.3 7.4,55.6 7.8,82.7 0.1,2.8 0.1,5.6 0.2,8.3 -0.2,-29.6 -2.3,-60.9 -8,-91"
         style="fill:#e37e2f;fill-opacity:1;fill-rule:nonzero;stroke:none"
         id="path260" /><path
         d="m 17646,11936.3 c 0,0.1 0,0.2 0,0.2 -0.1,10.8 -0.3,21.4 -0.8,31.6 0,0.2 0,0.4 0,0.6 0.5,-10.5 0.8,-21.3 0.8,-32.4"
         style="fill:#d2a393;fill-opacity:1;fill-rule:nonzero;stroke:none"
         id="path262" /><path
         d="m 17646,11936.5 c -0.1,1.4 -0.1,2.7 -0.1,3.9 0,0.2 0,0.3 0,0.4 v 0 0 c 0,3.4 -0.1,6.9 -0.2,10.4 0,1.7 0,3.4 -0.1,5.2 -0.1,3.3 -0.2,6.8 -0.4,10.1 0,0.6 0,1.1 0,1.6 0.5,-10.2 0.7,-20.8 0.8,-31.6"
         style="fill:#e37e2f;fill-opacity:1;fill-rule:nonzero;stroke:none"
         id="path264" /><path
         d="m 17645,11972.8 c -0.1,0.4 -0.1,0.7 -0.1,1.1 -0.3,5.4 -0.6,10.6 -1,15.8 -0.1,1.6 -0.3,3.1 -0.4,4.7 -0.2,2.8 -0.5,5.6 -0.7,8.4 -0.1,0.3 -0.1,0.7 -0.1,1 0.9,-9.8 1.7,-20.2 2.3,-31"
         style="fill:#d2a393;fill-opacity:1;fill-rule:nonzero;stroke:none"
         id="path266" /><path
         d="m 17644.9,11973.9 c -0.3,4.2 -0.5,8.3 -0.8,12.3 -0.1,1.2 -0.2,2.3 -0.2,3.5 0.4,-5.2 0.7,-10.4 1,-15.8 m -1.4,20.5 c 0,0.4 -0.1,0.8 -0.1,1.2 -0.2,2.4 -0.4,4.8 -0.6,7.2 0.2,-2.8 0.5,-5.6 0.7,-8.4"
         style="fill:#e37e2f;fill-opacity:1;fill-rule:nonzero;stroke:none"
         id="path268" /><path
         d="m 17642.7,12004.3 c -0.1,0.7 -0.2,1.5 -0.3,2.2 -0.4,4.4 -0.9,8.7 -1.3,12.9 -0.5,4.9 -1.1,9.5 -1.7,14 -0.2,1.3 -0.4,2.6 -0.5,4 v 0 0 c 1.3,-10 2.6,-21.1 3.8,-33.1"
         style="fill:#d2a393;fill-opacity:1;fill-rule:nonzero;stroke:none"
         id="path270" /><path
         d="m 17642.4,12006.5 c -0.4,4.1 -0.8,8.2 -1.2,12 -0.1,0.3 -0.1,0.6 -0.1,0.9 0.4,-4.2 0.9,-8.5 1.3,-12.9 m -3,26.9 c -0.2,1.3 -0.4,2.6 -0.6,4 h 0.1 v 0 c 0.1,-1.4 0.3,-2.7 0.5,-4"
         style="fill:#e37e2f;fill-opacity:1;fill-rule:nonzero;stroke:none"
         id="path272" /><path
         d="m 17138.5,11565.6 c -65,271.7 -274.2,385.2 -274.2,385.2 l 774.5,86.6 c 0.8,-5.9 1.7,-12.1 2.4,-18.9 0.5,-4.6 1,-9.4 1.5,-14.2 0,-0.2 0,-0.3 0,-0.5 0.2,-2.7 0.5,-5.4 0.7,-8.2 0.3,-3.2 0.5,-6.3 0.7,-9.4 0.3,-4.4 0.6,-8.8 0.9,-13.4 0,-1.4 0.1,-2.7 0.2,-4.1 0,-0.7 0,-1.5 0,-2.2 0.2,-3.3 0.3,-6.8 0.4,-10.1 0.1,-1.8 0.1,-3.5 0.1,-5.2 0.1,-3.5 0.2,-7 0.2,-10.4 v 0 c 0,-0.1 0,-0.2 0,-0.4 0,-1.3 0,-2.7 0.1,-4.1 0,-0.9 0,-1.8 0,-2.7 0,-0.2 0,-0.3 0,-0.5 -0.1,-2.7 -0.1,-5.5 -0.2,-8.3 -0.4,-27.1 -2.7,-55.4 -7.8,-82.7 0,-0.2 -0.1,-0.4 -0.1,-0.5 0,-0.1 0,-0.1 0,-0.2 -1.1,-5.6 -2.3,-11.2 -3.6,-16.8 -10.2,-42.4 -28.1,-81.6 -58.2,-109.4 -0.3,-0.4 -0.7,-0.7 -1.1,-1.1 0,0 0,0 0,0 -5.5,-5 -11.3,-9.6 -17.6,-13.8 h -0.1 v 0 c -0.9,-0.6 -1.7,-1.2 -2.6,-1.7 -1.1,-0.7 -2.2,-1.3 -3.3,-2.1 -2.4,-1.4 -4.8,-2.7 -7.3,-4.1 v 0 c -2.3,-1.2 -4.6,-2.3 -7,-3.4 -1.3,-0.6 -2.7,-1.2 -4,-1.8 -3.6,-1.5 -7.2,-2.9 -11,-4.2 -0.3,-0.1 -0.6,-0.2 -0.9,-0.3 l -1.4,-0.5 v 0 c -1.3,-0.4 -2.6,-0.9 -4,-1.4 l -0.9,-0.3 v 0 c -0.4,-0.1 -0.8,-0.2 -1.2,-0.4 -0.5,-0.1 -1,-0.3 -1.5,-0.5 v 0 c -0.4,-0.1 -0.7,-0.2 -1,-0.3 -0.5,-0.2 -0.9,-0.3 -1.3,-0.5 -0.7,-0.2 -1.3,-0.4 -2,-0.6 -0.5,-0.2 -1,-0.3 -1.5,-0.5 h -0.1 v 0 c -2,-0.7 -4,-1.4 -6.2,-2.1 0,0 0,0 -0.1,0 h -0.1 c -1.1,-0.4 -2.1,-0.7 -3.3,-1.1 -1.1,-0.4 -2.3,-0.7 -3.4,-1.1 -1.6,-0.6 -3.1,-1.1 -4.7,-1.6 -0.7,-0.2 -1.4,-0.4 -2.1,-0.7 -0.2,0 -0.4,-0.1 -0.6,-0.2 h -0.1 c -1.2,-0.4 -2.5,-0.8 -3.7,-1.2 h -0.1 v 0 0 c -0.7,-0.3 -1.4,-0.5 -2.1,-0.7 -0.2,-0.1 -0.4,-0.1 -0.6,-0.2 -0.4,-0.1 -0.8,-0.2 -1.3,-0.4 -1,-0.3 -1.9,-0.6 -2.9,-0.9 -3.5,-1.1 -7,-2.3 -10.8,-3.5 -2.1,-0.7 -4.2,-1.3 -6.4,-2 -5.8,-1.9 -11.9,-3.8 -18.3,-5.8 -0.3,-0.1 -0.7,-0.3 -1.1,-0.4 -1.8,-0.5 -3.7,-1.1 -5.7,-1.7 -8.2,-2.6 -16.7,-5.3 -25.7,-8.1 -11.7,-3.6 -24,-7.4 -37,-11.4 -6.1,-1.9 -12.3,-3.8 -18.6,-5.7 -10.1,-3.1 -20.5,-6.3 -31.3,-9.5 -2.9,-0.9 -5.8,-1.8 -8.7,-2.7 -4.9,-1.4 -9.7,-2.9 -14.8,-4.4 -0.3,-0.1 -0.7,-0.2 -1.1,-0.4 -1,-0.3 -2.1,-0.6 -3.2,-0.9 -6.6,-2 -13.4,-4.1 -20.3,-6.1 -0.2,-0.1 -0.3,-0.1 -0.5,-0.2 -0.3,-0.1 -0.7,-0.2 -1,-0.3 -0.6,-0.1 -1.1,-0.3 -1.7,-0.5 -0.2,0 -0.5,-0.1 -0.8,-0.2 -0.7,-0.2 -1.4,-0.4 -2.1,-0.6 -0.8,-0.3 -1.7,-0.6 -2.7,-0.8 -0.9,-0.3 -1.8,-0.6 -2.7,-0.9 -2.2,-0.6 -4.5,-1.3 -6.7,-2 -0.4,-0.1 -0.8,-0.2 -1.2,-0.3 -0.8,-0.3 -1.7,-0.5 -2.5,-0.7 -2.7,-0.8 -5.4,-1.7 -8.1,-2.5 -0.2,0 -0.4,-0.1 -0.6,-0.2 -1.6,-0.4 -3.3,-0.9 -4.9,-1.4 -0.9,-0.3 -1.8,-0.5 -2.6,-0.8 -2.8,-0.8 -5.5,-1.6 -8.2,-2.4 -1.6,-0.4 -3.1,-0.9 -4.7,-1.4 -0.3,-0.1 -0.7,-0.2 -1,-0.3 -1.5,-0.5 -3,-0.9 -4.5,-1.3 -0.4,-0.2 -0.9,-0.3 -1.4,-0.4 -1.7,-0.5 -3.5,-1.1 -5.2,-1.6 v 0 0 c -1.5,-0.4 -2.9,-0.8 -4.3,-1.3 -0.3,-0.1 -0.7,-0.2 -1,-0.3 -1.1,-0.3 -2.2,-0.6 -3.3,-0.9 -1.1,-0.3 -2.3,-0.7 -3.4,-1 -0.2,-0.1 -0.3,-0.1 -0.5,-0.2 -2.9,-0.8 -5.7,-1.7 -8.6,-2.5 -0.2,-0.1 -0.4,-0.1 -0.6,-0.2 -1.4,-0.4 -2.8,-0.8 -4.1,-1.1 -14.6,-4.4 -29.4,-8.7 -44.6,-13"
         style="fill:#ed8736;fill-opacity:1;fill-rule:nonzero;stroke:none"
         id="path274" /><path
         d="m 13380.5,12041.7 v 0 c -25.3,2.2 -43.9,27.1 -41.3,55.5 l 4.9,54.6 c 2.6,28.3 25.4,49.7 50.7,47.5 25.3,-2.2 43.9,-27.1 41.3,-55.5 l -4.9,-54.6 c -2.6,-28.3 -25.4,-49.7 -50.7,-47.5"
         style="fill:#2b478b;fill-opacity:1;fill-rule:nonzero;stroke:none"
         id="path276" /><path
         d="m 13143.3,12062.2 v 0 c -25.3,2.1 -43.9,27.1 -41.4,55.5 l 5,54.5 c 2.5,28.4 25.3,49.8 50.6,47.6 25.3,-2.2 43.9,-27.1 41.4,-55.5 l -5,-54.6 c -2.6,-28.3 -25.4,-49.7 -50.6,-47.5"
         style="fill:#2b478b;fill-opacity:1;fill-rule:nonzero;stroke:none"
         id="path278" /><path
         d="m 12906,12082.7 v 0 c -25.3,2.1 -43.9,27.1 -41.3,55.5 l 4.9,54.5 c 2.6,28.4 25.4,49.8 50.7,47.6 25.3,-2.2 43.9,-27.2 41.3,-55.5 l -4.9,-54.6 c -2.6,-28.3 -25.4,-49.7 -50.7,-47.5"
         style="fill:#2b478b;fill-opacity:1;fill-rule:nonzero;stroke:none"
         id="path280" /><path
         d="m 12668.7,12103.1 v 0 c -25.3,2.2 -43.8,27.2 -41.3,55.5 l 5,54.6 c 2.5,28.4 25.3,49.8 50.6,47.6 25.3,-2.2 43.9,-27.2 41.3,-55.5 l -4.9,-54.6 c -2.6,-28.3 -25.4,-49.8 -50.7,-47.6"
         style="fill:#2b478b;fill-opacity:1;fill-rule:nonzero;stroke:none"
         id="path282" /><path
         d="m 12431.5,12123.6 v 0 c -25.3,2.2 -43.9,27.2 -41.3,55.5 l 4.9,54.6 c 2.6,28.4 25.4,49.8 50.7,47.6 25.3,-2.2 43.9,-27.2 41.3,-55.5 l -4.9,-54.6 c -2.6,-28.4 -25.4,-49.8 -50.7,-47.6"
         style="fill:#2b478b;fill-opacity:1;fill-rule:nonzero;stroke:none"
         id="path284" /><path
         d="m 12194.2,12144.1 v 0 c -25.3,2.2 -43.9,27.2 -41.3,55.5 l 5,54.6 c 2.5,28.3 25.3,49.7 50.6,47.6 25.3,-2.2 43.9,-27.2 41.3,-55.5 l -4.9,-54.6 c -2.6,-28.4 -25.4,-49.8 -50.7,-47.6"
         style="fill:#2b478b;fill-opacity:1;fill-rule:nonzero;stroke:none"
         id="path286" /><path
         d="m 11957,12164.6 v 0 c -25.3,2.2 -43.9,27.2 -41.3,55.5 l 4.9,54.6 c 2.6,28.3 25.4,49.7 50.7,47.6 25.3,-2.2 43.9,-27.2 41.3,-55.6 l -5,-54.5 c -2.5,-28.4 -25.3,-49.8 -50.6,-47.6"
         style="fill:#2b478b;fill-opacity:1;fill-rule:nonzero;stroke:none"
         id="path288" /><path
         d="m 11719.7,12185.1 v 0 c -25.3,2.2 -43.9,27.2 -41.3,55.5 l 4.9,54.6 c 2.6,28.3 25.4,49.7 50.7,47.5 25.3,-2.1 43.9,-27.1 41.3,-55.5 l -4.9,-54.5 c -2.6,-28.4 -25.4,-49.8 -50.7,-47.6"
         style="fill:#2b478b;fill-opacity:1;fill-rule:nonzero;stroke:none"
         id="path290" /><path
         d="m 11482.5,12205.6 v 0 c -25.3,2.2 -43.9,27.1 -41.3,55.5 l 4.9,54.6 c 2.6,28.3 25.4,49.7 50.7,47.5 25.3,-2.2 43.8,-27.1 41.3,-55.5 l -5,-54.6 c -2.5,-28.3 -25.3,-49.7 -50.6,-47.5"
         style="fill:#2b478b;fill-opacity:1;fill-rule:nonzero;stroke:none"
         id="path292" /><path
         d="m 11250,12225.7 v 0 c -25.3,2.1 -43.9,27.1 -41.4,55.5 l 5,54.5 c 2.5,28.4 25.3,49.8 50.6,47.6 25.3,-2.2 43.9,-27.2 41.4,-55.5 l -5,-54.6 c -2.5,-28.3 -25.3,-49.7 -50.6,-47.5"
         style="fill:#2b478b;fill-opacity:1;fill-rule:nonzero;stroke:none"
         id="path294" /><path
         d="m 11012.7,12246.1 v 0 c -25.3,2.2 -43.9,27.2 -41.3,55.6 l 4.9,54.5 c 2.6,28.4 25.4,49.8 50.7,47.6 25.3,-2.2 43.9,-27.2 41.3,-55.5 l -4.9,-54.6 c -2.6,-28.3 -25.4,-49.7 -50.7,-47.6"
         style="fill:#2b478b;fill-opacity:1;fill-rule:nonzero;stroke:none"
         id="path296" /><path
         d="m 10775.4,12266.6 v 0 c -25.2,2.2 -43.8,27.2 -41.3,55.5 l 5,54.6 c 2.5,28.4 25.3,49.8 50.6,47.6 25.3,-2.2 43.9,-27.2 41.4,-55.5 l -5,-54.6 c -2.6,-28.3 -25.4,-49.8 -50.7,-47.6"
         style="fill:#2b478b;fill-opacity:1;fill-rule:nonzero;stroke:none"
         id="path298" /><path
         d="m 10481.5,12294.8 v 0 c -25.3,2.1 -43.9,27.1 -41.3,55.5 l 5,54.6 c 2.5,28.3 25.3,49.7 50.6,47.5 25.3,-2.2 43.9,-27.1 41.3,-55.5 l -4.9,-54.6 c -2.6,-28.3 -25.4,-49.7 -50.7,-47.5"
         style="fill:#2b478b;fill-opacity:1;fill-rule:nonzero;stroke:none"
         id="path300" /><path
         d="m 15969.1,11790.5 v 0 c -25.3,2.2 -43.8,27.1 -41.3,55.5 l 5,54.6 c 2.5,28.3 25.3,49.7 50.6,47.5 25.3,-2.2 43.9,-27.1 41.3,-55.5 l -4.9,-54.6 c -2.6,-28.3 -25.4,-49.7 -50.7,-47.5"
         style="fill:#2b478b;fill-opacity:1;fill-rule:nonzero;stroke:none"
         id="path302" /><path
         d="m 15731.9,11811 v 0 c -25.3,2.1 -43.9,27.1 -41.3,55.5 l 4.9,54.5 c 2.6,28.4 25.4,49.8 50.7,47.6 25.3,-2.2 43.9,-27.2 41.3,-55.5 l -5,-54.6 c -2.5,-28.3 -25.3,-49.7 -50.6,-47.5"
         style="fill:#2b478b;fill-opacity:1;fill-rule:nonzero;stroke:none"
         id="path304" /><path
         d="m 15494.6,11831.4 v 0 c -25.3,2.2 -43.9,27.2 -41.3,55.6 l 5,54.5 c 2.5,28.4 25.3,49.8 50.6,47.6 25.3,-2.2 43.9,-27.2 41.3,-55.5 l -4.9,-54.6 c -2.6,-28.3 -25.4,-49.7 -50.7,-47.6"
         style="fill:#2b478b;fill-opacity:1;fill-rule:nonzero;stroke:none"
         id="path306" /><path
         d="m 9593.47,12600.6 -161.75,-152.7 -96.53,-6.2 c 8.43,5.3 15.81,10.7 22.02,16.3 1.07,1 2.07,1.9 3.25,3.1 17.66,16.1 46.77,42.9 88.7,74.3 27.99,21.1 61.64,44.1 101.52,67.5 l 0.6,0.4 42.19,-2.7"
         style="fill:#2b478b;fill-opacity:1;fill-rule:nonzero;stroke:none"
         id="path308" /><path
         d="m 9628.74,12595 -157.95,-154.1 179.32,-38 56.62,175.8 -77.99,16.3"
         style="fill:#2b478b;fill-opacity:1;fill-rule:nonzero;stroke:none"
         id="path310" /><path
         d="m 9723.6,12573.3 -41.67,-165.2 132.89,37.8 8.54,115.1 -99.76,12.3"
         style="fill:#2b478b;fill-opacity:1;fill-rule:nonzero;stroke:none"
         id="path312" /><path
         d="m 12959.2,11307.2 c 69.7,27.2 88,148.5 30.3,200.5 -57.6,52 -136.5,104.3 -225.3,110.7 -182.4,13.2 -108.3,-358.2 -47.8,-365.9 35.6,-4.5 150.1,18.4 242.8,54.7"
         style="fill:#2b478b;fill-opacity:1;fill-rule:nonzero;stroke:none"
         id="path314" /><path
         d="m 16848.7,12024.5 c 7.3,9.9 686.4,233.7 1130.1,136.4 l -427.3,-269.1 -687.2,59 c 0,0 -52.2,24.3 -15.6,73.7"
         style="fill:#355daf;fill-opacity:1;fill-rule:nonzero;stroke:none"
         id="path316" /><path
         d="m 16520.8,13591.5 c 0,0 -454.5,-1004.5 -541,-1157 -86.5,-152.4 -275.6,-249.8 -275.6,-249.8 l -1.2,-0.4 -1204.2,-489.2 c 0,0 -1502.2,118.5 -1829,154.5 h -0.1 c -29.6,3.3 -49.7,6 -57.9,7.7 -99.4,21.1 -145.8,67.2 -126.7,103.5 19.1,36.2 2328.5,313.1 2584.2,341.6 2.4,0.3 4.9,0.6 7.3,0.8 248.9,29.4 272,114.1 272,114.1 l 952.8,1092 c 12.2,20.2 32.2,35.4 55.3,46.9 68.5,34.1 164.1,35.3 164.1,35.3"
         style="fill:#d7e2ff;fill-opacity:1;fill-rule:nonzero;stroke:none"
         id="path318" /><path
         d="m 16356.7,13556.2 c -256.4,-311.2 -965.7,-1169.5 -1033,-1227.9 -72.4,-62.9 -2144.8,-396 -2653.9,-478.7 h -0.1 c -29.6,3.3 -49.7,6 -57.9,7.7 -99.4,21.1 -145.8,67.2 -126.7,103.5 19.1,36.2 2328.5,313.1 2584.2,341.6 255.7,28.5 279.3,114.9 279.3,114.9 l 952.8,1092 c 12.2,20.2 32.2,35.4 55.3,46.9"
         style="fill:#739af0;fill-opacity:1;fill-rule:nonzero;stroke:none"
         id="path320" /><path
         d="m 16520.8,13591.5 c 0,0 -454.5,-1004.5 -541,-1157 -86.5,-152.4 -275.6,-249.8 -275.6,-249.8 l -1.2,-0.4 c -261.6,6.4 -482,66.6 -626.4,118.9 248.9,29.4 272,114.1 272,114.1 l 952.8,1092 c 12.2,20.2 32.2,35.4 55.3,46.9 68.5,34.1 164.1,35.3 164.1,35.3"
         style="fill:#d7e2ff;fill-opacity:1;fill-rule:nonzero;stroke:none"
         id="path322" /><path
         d="m 12805.5,11706.1 -45.7,-506.6 c 0,0 -193.6,-69.7 -496.3,-53.6 -185.4,9.9 -308.8,50.6 -376.7,80.6 -43,19 -63.7,33.8 -63.7,33.8 l 47.9,531.1 c 17,14.5 40.8,25.1 69.7,32.5 239.3,61.3 827.7,-97.3 827.7,-97.3 l 37.1,-20.5"
         style="fill:#e9f0ff;fill-opacity:1;fill-rule:nonzero;stroke:none"
         id="path324" /><path
         d="m 11940.7,11823.9 -53.9,-597.4 c -43,19 -63.7,33.8 -63.7,33.8 l 47.9,531.1 c 17,14.5 40.8,25.1 69.7,32.5"
         style="fill:#ff9843;fill-opacity:1;fill-rule:nonzero;stroke:none"
         id="path326" /><path
         d="M 8966.83,2589.6 12525,3539.3 c 75.3,20.2 125.3,80.3 111.1,133.7 l -1995,7500.3 c -14.2,53.4 -87.4,80.6 -162.8,60.5 L 6920.17,10284 c -75.33,-20.1 -125.35,-80.2 -111.15,-133.6 L 8804.05,2650.1 c 14.19,-53.4 87.45,-80.6 162.78,-60.5"
         style="fill:#ffe3ca;fill-opacity:1;fill-rule:nonzero;stroke:none"
         id="path328" /><path
         d="m 8966.84,2589.6 292.54,78.1 -2046.66,7694.4 -292.55,-78.1 c -75.33,-20.1 -125.35,-80.2 -111.15,-133.6 L 8804.05,2650.1 c 14.2,-53.4 87.45,-80.6 162.79,-60.5"
         style="fill:#f2be8f;fill-opacity:1;fill-rule:nonzero;stroke:none"
         id="path330" /><path
         d="m 9551.82,7719.8 -598.89,2251.5 456.58,121.9 598.89,-2251.6 -456.58,-121.8"
         style="fill:#f4cfae;fill-opacity:1;fill-rule:nonzero;stroke:none"
         id="path332" /><path
         d="m 10818.1,7036.9 -852.41,3204.7 456.61,121.9 852.4,-3204.8 -456.6,-121.8"
         style="fill:#f4cfae;fill-opacity:1;fill-rule:nonzero;stroke:none"
         id="path334" /><path
         d="m 10275.8,8608.3 -426.26,1602.3 -101.78,-27.1 426.24,-1602.4 101.8,27.2"
         style="fill:#f2be8f;fill-opacity:1;fill-rule:nonzero;stroke:none"
         id="path336" /><path
         d="m 9269.67,8339.7 -426.22,1602.4 -101.78,-27.2 426.23,-1602.4 101.77,27.2"
         style="fill:#f2be8f;fill-opacity:1;fill-rule:nonzero;stroke:none"
         id="path338" /><path
         d="m 8036.15,9767.2 9.55,-26.3 c 0.33,-0.9 0.77,-1.8 1.33,-2.6 l 126.44,-182.7 c 1.54,-2.3 2.23,-5 1.94,-7.7 l -9.34,-322.7 c -0.93,-8.5 -37.88,27.9 -44.93,32.8 -76.73,52.8 -282.09,233.8 -367.91,298.7 -13.72,10.4 -33.22,-0.7 -31.34,-17.8 0.91,-8.2 4.19,-16 9.46,-22.4 l 296.06,-361 -15.66,-68.1 c -2.28,-9.9 3.95,-19.8 13.84,-22.1 l 52.74,-12 c 9.72,-2.2 19.47,3.7 21.97,13.3 l 38.14,-46.5 c 1.82,-2.2 2.72,-5 2.54,-7.9 l -18.93,-293 c -1.67,-25.9 5.68,-51.6 20.84,-72.7 6.14,-8.6 12.77,-17.8 18.94,-26.3 12.77,-17.7 37.73,-21.2 54.87,-7.6 l 8.59,6.8 c 28.09,22.1 44.8,55.7 45.56,91.4 l 4.98,233.9 c 0.09,4.7 3,8.8 7.34,10.4 l 88.62,33.3 -3.33,-14.5 c -2.27,-9.9 3.96,-19.8 13.84,-22.1 l 52.75,-12 c 9.89,-2.3 19.84,3.9 22.12,13.8 l 16.83,73.2 138.27,51.9 c 11.16,4.2 20.85,11.6 27.81,21.3 8.88,12.3 18.87,25.5 16.44,28.1 -7.87,8.3 -255.29,26.3 -350.89,28.4 -5.43,0.1 -4.63,46 -4.52,51.4 l -13.05,311.9 c 0.08,4.1 2.38,7.9 6,9.8 l 77.76,41.4 c 8.7,4.7 15.57,12.1 19.46,21.2 l 0.16,0.4 c 2.76,6.4 -0.91,13.7 -7.69,15.4 l -123.4,30.1 c -3.58,0.9 -6.51,3.5 -7.85,6.9 l -11.6,29.9 c -3.61,9.4 -16.68,9.7 -20.84,0.6 l -4.5,-9.9 -162.23,114.7 c -9.05,6.4 -20.96,-2.7 -17.18,-13.1"
         style="fill:#f2be8f;fill-opacity:1;fill-rule:nonzero;stroke:none"
         id="path340" /><path
         d="M 11524.2,1710.2 H 6845.57 v 6474.3 h 4687.03 c 177.2,0 320.9,-143.6 320.9,-320.8 V 2039.5 c 0,-181.9 -147.5,-329.3 -329.3,-329.3"
         style="fill:#739af0;fill-opacity:1;fill-rule:nonzero;stroke:none"
         id="path342" /><path
         d="m 7579.31,7441.5 h 113.95 c 18.24,0 33.93,2.3 47.05,6.8 13.12,4.5 23.93,10.8 32.42,19.1 8.5,8.2 14.68,18 18.56,29.4 3.88,11.4 5.81,23.8 5.81,37.3 0,12.8 -1.93,25 -5.81,36.8 -3.88,11.7 -10.06,22.1 -18.56,31.3 -8.49,9.1 -19.3,16.3 -32.42,21.7 -13.12,5.4 -28.81,8.1 -47.05,8.1 h -113.95 z m 0,-76.1 v -202.8 h -94.85 v 545.8 h 208.8 c 31.74,0 59.92,-4.3 84.54,-12.9 24.61,-8.6 45.41,-20.7 62.41,-36.2 17,-15.5 29.93,-33.8 38.8,-55.1 8.87,-21.2 13.31,-44.3 13.31,-69.3 0,-26.5 -4.44,-50.3 -13.31,-71.3 -8.87,-21 -21.8,-38.7 -38.8,-53.2 -17,-14.5 -37.8,-25.6 -62.41,-33.3 -24.62,-7.8 -52.8,-11.7 -84.54,-11.7 h -113.95"
         style="fill:#aec3ff;fill-opacity:1;fill-rule:nonzero;stroke:none"
         id="path344" /><path
         d="m 8029.15,7366.2 h 158.19 l -79.1,226.4 z m 184.81,-76.5 h -211.43 l -44.23,-127.1 h -98.59 l 206.17,545.8 h 85.1 l 206.55,-545.8 h -98.97 l -44.6,127.1"
         style="fill:#aec3ff;fill-opacity:1;fill-rule:nonzero;stroke:none"
         id="path346" /><path
         d="m 8704.66,7303.2 c 0,11 -1.63,20.8 -4.87,29.4 -3.26,8.6 -9.19,16.6 -17.81,23.8 -8.62,7.3 -20.5,14.2 -35.61,20.8 -15.13,6.7 -34.55,13.6 -58.29,20.8 -26,7.8 -49.99,16.7 -71.98,26.7 -21.99,9.9 -40.92,21.6 -56.79,34.8 -15.88,13.3 -28.3,28.5 -37.3,45.8 -9,17.2 -13.49,36.9 -13.49,59.2 0,22 4.68,42.2 14.05,60.7 9.37,18.5 22.55,34.5 39.55,48 16.99,13.5 37.36,24 61.1,31.5 23.74,7.5 49.98,11.2 78.72,11.2 30.75,0 58.35,-4.4 82.85,-13.3 24.49,-8.9 45.17,-20.9 62.04,-36.2 16.87,-15.2 29.8,-32.9 38.8,-53 8.99,-20.1 13.49,-41.5 13.49,-64.3 h -94.46 c 0,13.3 -2.06,25.4 -6.19,36.6 -4.12,11.1 -10.43,20.7 -18.93,28.8 -8.5,8.1 -19.25,14.5 -32.24,19 -12.99,4.5 -28.36,6.7 -46.1,6.7 -16.75,0 -31.25,-1.9 -43.49,-5.6 -12.25,-3.8 -22.44,-9 -30.55,-15.8 -8.13,-6.7 -14.12,-14.7 -17.99,-24 -3.88,-9.2 -5.82,-19.2 -5.82,-29.9 0,-20.3 9.56,-37.2 28.68,-50.7 19.12,-13.4 48.3,-25.9 87.54,-37.4 30.73,-9 57.35,-19 79.84,-30 22.49,-11 41.18,-23.5 56.04,-37.3 14.87,-13.9 25.93,-29.5 33.18,-46.9 7.24,-17.4 10.87,-36.9 10.87,-58.7 0,-22.9 -4.57,-43.6 -13.68,-62 -9.13,-18.4 -22.12,-34 -38.99,-46.9 -16.87,-12.8 -37.3,-22.7 -61.29,-29.6 -23.99,-6.8 -50.74,-10.3 -80.22,-10.3 -26.24,0 -52.11,3.6 -77.6,10.7 -25.49,7.1 -48.35,17.9 -68.6,32.2 -20.24,14.4 -36.55,32.3 -48.92,53.8 -12.37,21.5 -18.55,46.8 -18.55,75.8 h 94.83 c 0,-17.3 3.07,-32.1 9.19,-44.5 6.12,-12.3 14.49,-22.4 25.12,-30.3 10.62,-7.9 23.17,-13.6 37.67,-17.3 14.49,-3.6 30.11,-5.4 46.86,-5.4 32.99,0 57.79,6.7 74.41,20.1 16.62,13.3 24.93,31 24.93,53"
         style="fill:#aec3ff;fill-opacity:1;fill-rule:nonzero;stroke:none"
         id="path348" /><path
         d="m 9167.99,7303.2 c 0,11 -1.63,20.8 -4.87,29.4 -3.25,8.6 -9.18,16.6 -17.81,23.8 -8.62,7.3 -20.49,14.2 -35.61,20.8 -15.12,6.7 -34.55,13.6 -58.29,20.8 -26,7.8 -49.98,16.7 -71.98,26.7 -21.99,9.9 -40.92,21.6 -56.79,34.8 -15.87,13.3 -28.3,28.5 -37.3,45.8 -9,17.2 -13.49,36.9 -13.49,59.2 0,22 4.68,42.2 14.05,60.7 9.38,18.5 22.55,34.5 39.55,48 17,13.5 37.36,24 61.11,31.5 23.74,7.5 49.97,11.2 78.72,11.2 30.74,0 58.35,-4.4 82.84,-13.3 24.49,-8.9 45.18,-20.9 62.05,-36.2 16.87,-15.2 29.8,-32.9 38.79,-53 8.99,-20.1 13.49,-41.5 13.49,-64.3 h -94.46 c 0,13.3 -2.06,25.4 -6.18,36.6 -4.13,11.1 -10.44,20.7 -18.93,28.8 -8.51,8.1 -19.25,14.5 -32.24,19 -13,4.5 -28.37,6.7 -46.11,6.7 -16.75,0 -31.24,-1.9 -43.49,-5.6 -12.25,-3.8 -22.43,-9 -30.55,-15.8 -8.12,-6.7 -14.12,-14.7 -17.99,-24 -3.88,-9.2 -5.82,-19.2 -5.82,-29.9 0,-20.3 9.57,-37.2 28.69,-50.7 19.11,-13.4 48.29,-25.9 87.52,-37.4 30.74,-9 57.36,-19 79.85,-30 22.5,-11 41.18,-23.5 56.04,-37.3 14.87,-13.9 25.93,-29.5 33.18,-46.9 7.25,-17.4 10.87,-36.9 10.87,-58.7 0,-22.9 -4.56,-43.6 -13.68,-62 -9.13,-18.4 -22.11,-34 -38.98,-46.9 -16.87,-12.8 -37.3,-22.7 -61.3,-29.6 -23.99,-6.8 -50.74,-10.3 -80.22,-10.3 -26.24,0 -52.1,3.6 -77.6,10.7 -25.48,7.1 -48.35,17.9 -68.6,32.2 -20.24,14.4 -36.55,32.3 -48.92,53.8 -12.37,21.5 -18.55,46.8 -18.55,75.8 h 94.83 c 0,-17.3 3.06,-32.1 9.2,-44.5 6.11,-12.3 14.49,-22.4 25.11,-30.3 10.62,-7.9 23.17,-13.6 37.68,-17.3 14.49,-3.6 30.1,-5.4 46.85,-5.4 32.99,0 57.79,6.7 74.42,20.1 16.61,13.3 24.92,31 24.92,53"
         style="fill:#aec3ff;fill-opacity:1;fill-rule:nonzero;stroke:none"
         id="path350" /><path
         d="m 9440.9,7441.5 h 113.96 c 18.24,0 33.92,2.3 47.05,6.8 13.11,4.5 23.92,10.8 32.42,19.1 8.49,8.2 14.68,18 18.56,29.4 3.87,11.4 5.81,23.8 5.81,37.3 0,12.8 -1.94,25 -5.81,36.8 -3.88,11.7 -10.07,22.1 -18.56,31.3 -8.5,9.1 -19.31,16.3 -32.42,21.7 -13.13,5.4 -28.81,8.1 -47.05,8.1 H 9440.9 Z m 0,-76.1 v -202.8 h -94.85 v 545.8 h 208.81 c 31.73,0 59.91,-4.3 84.53,-12.9 24.61,-8.6 45.41,-20.7 62.42,-36.2 16.99,-15.5 29.92,-33.8 38.8,-55.1 8.87,-21.2 13.3,-44.3 13.3,-69.3 0,-26.5 -4.43,-50.3 -13.3,-71.3 -8.88,-21 -21.81,-38.7 -38.8,-53.2 -17.01,-14.5 -37.81,-25.6 -62.42,-33.3 -24.62,-7.8 -52.8,-11.7 -84.53,-11.7 H 9440.9"
         style="fill:#aec3ff;fill-opacity:1;fill-rule:nonzero;stroke:none"
         id="path352" /><path
         d="m 10177.5,7449.8 c 0,30.5 -2.9,57.4 -8.8,80.8 -5.9,23.3 -14.4,42.9 -25.7,58.6 -11.2,15.8 -25,27.7 -41.4,35.8 -16.4,8.1 -34.9,12.2 -55.7,12.2 -20.2,0 -38.5,-4.1 -54.7,-12.2 -16.25,-8.1 -30.06,-20 -41.42,-35.8 -11.38,-15.7 -20.13,-35.3 -26.24,-58.6 -6.13,-23.4 -9.19,-50.3 -9.19,-80.8 v -28.5 c 0,-30.5 3.06,-57.5 9.19,-81 6.11,-23.5 14.93,-43.2 26.43,-59 11.49,-15.9 25.42,-27.9 41.79,-36 16.34,-8.1 34.64,-12.2 54.94,-12.2 42,0 74.3,16 96.9,48 22.6,32 33.9,78.7 33.9,140.2 z m 94.9,-28.5 c 0,-41.5 -5.5,-78.7 -16.4,-111.5 -10.8,-32.9 -26.1,-60.8 -45.9,-83.6 -19.7,-22.9 -43.5,-40.5 -71.2,-52.7 -27.7,-12.3 -58.5,-18.4 -92.2,-18.4 -33.5,0 -64.12,6.1 -91.86,18.4 -27.74,12.2 -51.68,29.8 -71.79,52.7 -20.12,22.8 -35.74,50.7 -46.86,83.6 -11.13,32.8 -16.68,70 -16.68,111.5 v 27.7 c 0,41.5 5.55,78.7 16.68,111.7 11.12,33 26.62,61 46.49,84 19.86,23 43.67,40.6 71.41,52.9 27.74,12.2 58.31,18.3 91.81,18.3 33.8,0 64.6,-6.1 92.4,-18.3 27.9,-12.3 51.8,-29.9 71.6,-52.9 19.9,-23 35.3,-51 46.1,-84 10.9,-33 16.4,-70.2 16.4,-111.7 v -27.7"
         style="fill:#aec3ff;fill-opacity:1;fill-rule:nonzero;stroke:none"
         id="path354" /><path
         d="m 10461.7,7449 h 97.4 c 17,0 31.9,2.3 44.6,6.8 12.8,4.5 23.4,10.7 31.9,18.7 8.5,8 14.9,17.5 19.1,28.5 4.3,11 6.4,23.1 6.4,36.4 0,14 -2,26.6 -6,38 -4,11.4 -10.1,21.1 -18.4,29.3 -8.2,8.1 -18.8,14.3 -31.7,18.7 -12.8,4.4 -28.3,6.6 -46.2,6.6 h -97.1 z m 105.7,-76.1 h -105.7 v -210.3 h -94.9 v 545.8 h 192 c 31.2,0 59.1,-3.5 83.5,-10.7 24.5,-7.1 45.2,-17.6 62.1,-31.4 16.9,-13.9 29.7,-31.1 38.4,-51.6 8.8,-20.5 13.1,-44.2 13.1,-71.2 0,-36.5 -8.8,-67.1 -26.4,-91.7 -17.6,-24.6 -42.2,-43.5 -73.7,-56.8 l 122.6,-227.5 v -4.9 h -101.6 l -109.4,210.3"
         style="fill:#aec3ff;fill-opacity:1;fill-rule:nonzero;stroke:none"
         id="path356" /><path
         d="m 11221.5,7632 h -170.2 v -469.4 h -94.1 V 7632 h -168.7 v 76.4 h 433 V 7632"
         style="fill:#aec3ff;fill-opacity:1;fill-rule:nonzero;stroke:none"
         id="path358" /><path
         d="m 9729.28,2405 h -752.59 c -24.24,0 -43.89,19.6 -43.89,43.8 0,24.3 19.65,43.9 43.89,43.9 h 752.59 c 24.25,0 43.89,-19.6 43.89,-43.9 0,-24.2 -19.64,-43.8 -43.89,-43.8"
         style="fill:#aec3ff;fill-opacity:1;fill-rule:nonzero;stroke:none"
         id="path360" /><path
         d="M 10265.5,2195.7 H 8440.44 c -24.24,0 -43.89,19.7 -43.89,43.9 0,24.3 19.65,43.9 43.89,43.9 h 1825.06 c 24.3,0 43.9,-19.6 43.9,-43.9 0,-24.2 -19.6,-43.9 -43.9,-43.9"
         style="fill:#aec3ff;fill-opacity:1;fill-rule:nonzero;stroke:none"
         id="path362" /><path
         d="m 9352.99,6595.1 c -471.57,0 -914.92,-183.6 -1248.38,-517.1 -333.45,-333.5 -517.1,-776.8 -517.1,-1248.4 0,-471.6 183.65,-914.9 517.1,-1248.4 333.46,-333.4 776.81,-517 1248.38,-517 471.58,0 914.91,183.6 1248.41,517 333.4,333.5 517.1,776.8 517.1,1248.4 0,471.6 -183.7,914.9 -517.1,1248.4 -333.5,333.5 -776.83,517.1 -1248.41,517.1 z m 0,-3550.6 c -476.82,0 -925.1,185.7 -1262.26,522.9 -337.17,337.1 -522.85,785.4 -522.85,1262.2 0,476.8 185.68,925.1 522.85,1262.3 337.16,337.1 785.44,522.8 1262.26,522.8 476.82,0 925.11,-185.7 1262.21,-522.8 337.2,-337.2 522.9,-785.5 522.9,-1262.3 0,-476.8 -185.7,-925.1 -522.9,-1262.2 -337.1,-337.2 -785.39,-522.9 -1262.21,-522.9"
         style="fill:#aec3ff;fill-opacity:1;fill-rule:nonzero;stroke:none"
         id="path364" /><path
         d="m 10784.3,4829.6 c 0,-88 -7.9,-174.2 -23.1,-257.8 -36.6,-200.8 -115,-386.9 -225.9,-549.2 -257.8,-376.9 -691.15,-624.3 -1182.3,-624.3 -584.25,0 -1086.75,350 -1309.15,851.8 -29.35,66.1 -53.84,134.9 -72.9,205.9 -32.2,119 -49.33,244.4 -49.33,373.6 0,104.5 11.2,206.5 32.48,304.6 0.22,1.1 0.5,2.2 0.71,3.3 59.48,271.3 195.92,513.7 385.27,703.4 53.69,53.8 111.66,103.3 173.42,148.1 29.42,21.4 59.76,41.6 90.82,60.7 217.76,134 474.15,211.3 748.68,211.3 36.41,0 72.47,-1.4 108.17,-4.1 50.4,-3.7 100.02,-10.1 148.79,-18.9 205.34,-37.2 395.34,-118.3 560.14,-233.1 v 0 c 102.7,-71.4 195.5,-156 276.1,-251.3 42.4,-50 81.4,-103 116.6,-158.6 21.9,-34.7 42.4,-70.2 61.4,-106.8 45.6,-87.8 82.3,-181 109.1,-278.3 33.2,-121.1 51,-248.7 51,-380.3"
         style="fill:#aec3ff;fill-opacity:1;fill-rule:nonzero;stroke:none"
         id="path366" /><path
         d="m 8866.71,5470.3 c -57.12,-90.5 23.85,-247.5 -147.51,-204.7 -171.35,42.8 -276.09,61.9 -285.59,-33.3 -9.57,-95.2 128.51,-95.2 128.51,-195.2 0,-99.9 -61.9,-133 -157.07,-85.5 -95.25,47.5 -122.59,116.5 -233.26,73.7 -110.66,-42.9 -174.92,-14.3 -199.91,71.4 -4.43,15 -10.57,27.3 -17.78,37.5 0.22,1.1 0.5,2.2 0.71,3.3 59.48,271.3 195.92,513.7 385.27,703.4 53.69,53.8 111.66,103.3 173.42,148.1 29.42,21.4 59.76,41.6 90.82,60.7 44.63,-1.6 97.96,-18.6 143.44,-74.8 99.95,-123.8 166.57,-61.9 142.8,-204.7 -23.85,-142.8 14.27,-161.9 95.17,-157.1 80.89,4.8 176.14,4.8 185.63,-57.1 9.5,-61.9 -247.53,4.8 -304.65,-85.7"
         style="fill:#94b0ed;fill-opacity:1;fill-rule:nonzero;stroke:none"
         id="path368" /><path
         d="m 9459.32,4613.5 c 0,0 -126.14,-40.4 -159.45,47.6 -33.32,88.1 4.75,107.1 -107.1,133.3 -111.86,26.2 -121.37,102.3 -192.77,92.8 -71.4,-9.5 -35.7,-38 -119,-99.9 -83.3,-61.9 -159.46,-33.3 -157.07,-147.6 2.37,-114.2 126.13,-132.1 151.12,-207 24.99,-75 -17.85,-107.1 35.7,-164.3 53.55,-57.1 153.5,-32.1 107.1,-110.6 -46.41,-78.6 -117.81,-139.2 -82.11,-260.6 35.7,-121.4 10.71,-128.5 71.39,-214.2 60.69,-85.7 178.5,-114.3 196.35,-57.1 17.85,57.1 -82.11,132 -49.98,189.2 32.13,57.1 85.68,17.8 107.1,103.5 21.42,85.7 108.28,85.7 115.43,145.2 7.13,59.5 -104.72,149.9 -61.88,188 42.83,38.1 128.51,-69 195.15,26.2 66.64,95.2 21.42,171.3 90.44,261.8 69.01,90.4 -92.82,126.1 -140.42,73.7"
         style="fill:#94b0ed;fill-opacity:1;fill-rule:nonzero;stroke:none"
         id="path370" /><path
         d="m 10784.3,4829.6 c 0,-88 -7.9,-174.2 -23.1,-257.8 -36.6,-200.8 -115,-386.9 -225.9,-549.2 -37.9,-12.4 -76.5,-12.1 -114.5,3.1 -178.5,71.4 -46.4,264.2 25,360.6 71.4,96.4 -110.7,53.5 -242.7,142.8 -132.1,89.2 14.2,328.4 -121.4,289.1 -135.67,-39.2 -299.88,-89.2 -378.42,42.9 -78.54,132.1 71.39,153.5 3.57,264.1 -67.83,110.7 39.26,175 174.92,185.7 135.63,10.7 117.81,107.1 285.63,121.3 167.7,14.3 164.2,-199.9 349.8,-185.6 185.6,14.3 177.3,-28.5 177.3,-28.5 13.3,0.3 26.3,-2.5 38.8,-8.2 33.2,-121.1 51,-248.7 51,-380.3"
         style="fill:#94b0ed;fill-opacity:1;fill-rule:nonzero;stroke:none"
         id="path372" /><path
         d="m 10624.2,5488.2 c -154.4,-75.1 -216.4,129.2 -348.3,67.8 -133,-61.9 -109.8,57.1 -214.4,133.3 -104.76,76.1 -314.17,-61.9 -304.67,57.1 9.49,118.9 166.56,85.7 199.91,180.8 33.34,95.2 185.66,71.4 185.66,71.4 8.6,3.3 17.9,5.5 27.7,6.3 v 0 c 102.7,-71.4 195.5,-156 276.1,-251.3 42.4,-50 81.4,-103 116.6,-158.6 21.9,-34.7 42.4,-70.2 61.4,-106.8"
         style="fill:#94b0ed;fill-opacity:1;fill-rule:nonzero;stroke:none"
         id="path374" /><path
         d="m 9323.67,5898.7 c 0,0 80.91,116.7 -47.61,151.2 -128.51,34.4 -126.13,-10.7 -226.08,0 -99.97,10.6 -139.23,-66.7 -64.26,-151.2 74.96,-84.5 135.65,-246.6 203.48,-160.2 67.83,86.4 54.74,151.9 134.47,160.2"
         style="fill:#94b0ed;fill-opacity:1;fill-rule:nonzero;stroke:none"
         id="path376" /></g></g></svg>
